<?xml version="1.0" encoding="UTF-8" standalone="no"?>
<!DOCTYPE svg PUBLIC "-//W3C//DTD SVG 1.1//EN" "http://www.w3.org/Graphics/SVG/1.1/DTD/svg11.dtd">
<svg width="100%" height="100%" viewBox="0 0 146 121" version="1.1" xmlns="http://www.w3.org/2000/svg" xmlns:xlink="http://www.w3.org/1999/xlink" xml:space="preserve" xmlns:serif="http://www.serif.com/" style="fill-rule:evenodd;clip-rule:evenodd;stroke-linejoin:round;stroke-miterlimit:2;">
    <g transform="matrix(1,0,0,1,-511.245321,-21.01887)">
        <g id="card.png" transform="matrix(0.480196,0,0,0.480196,510.427029,20.341294)">
            <path d="M302.822,102.5C302.822,166.893 302.948,166.917 301.868,174.551C298.038,201.602 275.067,233.519 251.338,249.253C249.111,250.73 248.927,250.535 226.5,250.535C209.323,250.535 209.139,250.756 206.715,249.17C194.728,241.326 179.798,226.35 169.494,208.504C168.157,206.188 167.565,206.535 154.5,206.535C33.081,206.535 33.067,206.595 30.59,206.061C26.633,205.21 18.029,203.299 10.19,193.752C1.464,183.123 2.822,170.865 2.822,161.5C2.822,120.167 2.822,78.833 2.822,37.5C2.834,32.484 3.015,20.645 15.251,10.206C25.928,1.098 38.574,2.535 46.5,2.535C223.434,2.535 223.427,2.492 225.441,2.882C244.82,6.627 253.704,21.843 253.981,35.492C254.157,44.156 253.631,87.842 254.307,89.589C256.693,95.751 296.567,91.278 300.311,93.803C303.394,95.881 302.809,99.321 302.822,102.5ZM12.822,62.5C12.825,61.535 12.515,58.445 13.671,57.808C14.342,57.439 17.086,57.535 18.5,57.535C242.122,57.535 242.117,57.528 242.479,57.599C244.333,57.962 243.992,58.726 243.992,69.5C243.992,83.287 244.126,83.505 243.662,83.672C242.186,84.203 242.077,83.649 239.597,82.315C232.46,78.476 230.003,76.132 226.31,78.119C224.424,79.134 211.795,86.086 210.654,86.767C198.952,93.747 195.971,92.864 180.5,92.864C159.063,92.864 158.615,92.574 156.719,94.695C155.296,96.285 155.478,96.554 155.478,122.5C155.478,166.33 155.092,171.345 157.801,181.423C161.182,194 163.131,194.935 162.087,196.093C161.666,196.559 159.711,196.544 159.501,196.542C156.107,196.516 37.542,196.56 35.499,196.518C26.528,196.332 15.965,189.642 13.317,177.542C12.762,175.005 12.822,174.997 12.822,62.5ZM292.822,108.5C292.822,166.6 292.946,166.628 291.875,173.557C290.396,183.121 287.458,192.639 276.014,210.173C267.185,223.7 249.951,239.844 245.495,240.458C243.905,240.678 217.9,240.547 215.5,240.535C212.157,240.518 211.517,241.237 201.572,232.418C190.744,222.814 183.592,213.237 176.017,199.763C164.093,178.552 165.478,169.08 165.478,138.5C165.478,104.452 165.428,104.379 165.841,103.719C166.624,102.47 167.063,103.064 191.501,102.864C207.047,102.736 211.258,97.124 227.294,89.062C230.169,87.616 231.108,89.24 240.596,94.315C254.066,101.52 254.03,103.056 274.5,103.056C291.647,103.056 292.301,102.829 292.727,104.432C292.816,104.764 292.821,108.174 292.822,108.5ZM12.822,40.5C12.823,38.899 12.477,33.173 14.206,28.394C18.758,15.816 30.678,13.248 32.56,12.843C34.164,12.498 34.16,12.535 191.5,12.535C224.903,12.535 225.199,12.153 230.738,15.016C245.839,22.82 244.041,36.787 243.992,44.507C243.973,47.358 243.297,47.532 240.5,47.535C222.5,47.554 29.682,47.753 15.499,47.535C12.192,47.484 12.822,45.827 12.822,40.5Z" style="stroke:black;stroke-width:2.08px;"/>
            <path d="M191.815,185.529C191.837,185.378 191.893,184.248 192.252,182.449C195.728,165.062 208.867,158.358 209.219,158.125C211.396,156.687 208.736,155.364 205.728,151.333C199.39,142.839 200.539,132.365 200.901,130.566C205.258,108.943 227.657,103.78 240.391,110.715C260.074,121.434 258.409,144.472 247.056,155.1C244.706,157.3 246.757,157.939 248.65,159.279C266.299,171.781 264.478,189.22 264.478,198.5C264.478,218.543 264.96,219.517 261.426,221.339C260.275,221.932 260.189,221.865 201.5,221.865C199.029,221.865 193.053,222.864 191.798,217.455C191.599,216.599 191.407,193.977 191.815,185.529ZM201.792,186.532C201.853,186.111 202.459,173.016 215.674,165.832C224.095,161.254 234.996,161.997 242.645,167.279C256.234,176.665 254.478,189.081 254.478,203.5C254.478,210.228 255.148,211.793 251.511,211.863C251.419,211.865 204.542,211.864 204.494,211.864C201.783,211.836 201.626,211.199 201.619,208.499C201.578,191.511 201.716,188.288 201.792,186.532ZM210.842,138.445C210.836,138.374 209.2,130.243 214.827,123.775C219.531,118.367 226.627,117.426 229.469,117.83C245.079,120.046 247.792,135.167 243.833,142.658C235.914,157.643 219.778,152.789 215.499,147.501C211.404,142.439 211.893,142.13 210.842,138.445Z" style="stroke:black;stroke-width:2.08px;"/>
            <path d="M39.829,29.512C40.475,27.003 40.667,24.647 46.5,24.629C46.568,24.629 209.807,24.626 210.499,24.63C219.637,24.683 217.845,33.168 213.456,34.347C212.279,34.663 212.277,34.629 70.5,34.629C43.461,34.629 43.207,34.809 41.571,33.414C39.88,31.973 40.252,31.712 39.829,29.512Z" style="stroke:black;stroke-width:2.08px;"/>
        </g>
    </g>
</svg>
