<svg width="161" height="163" viewBox="0 0 161 163" fill="none" xmlns="http://www.w3.org/2000/svg">
<path d="M137.429 133.776C138.662 134.906 140.586 134.814 141.652 133.525C152.822 120.022 159.379 103.18 160.287 85.5275C161.248 66.855 155.829 48.4176 144.943 33.3222C134.058 18.2269 118.372 7.39642 100.528 2.65603C82.6849 -2.08435 63.7748 -0.444855 46.985 7.29823C30.1951 15.0413 16.5518 28.4146 8.35442 45.1644C0.156989 61.9143 -2.09348 81.0167 1.98226 99.2524C6.058 117.488 16.2108 133.743 30.7296 145.276C44.4605 156.184 61.3024 162.239 78.6901 162.57C80.346 162.602 81.6641 161.229 81.6337 159.573L81.3549 144.366C81.3245 142.709 79.955 141.399 78.2984 141.345C65.7259 140.936 53.5776 136.48 43.6359 128.583C32.905 120.058 25.4011 108.045 22.3888 94.5667C19.3764 81.0886 21.0397 66.97 27.0984 54.5902C33.1571 42.2104 43.2408 32.3262 55.6502 26.6033C68.0596 20.8804 82.0361 19.6687 95.2242 23.1723C108.412 26.6759 120.006 34.6807 128.051 45.8377C136.097 56.9947 140.102 70.6218 139.392 84.4226C138.733 97.2303 134.051 109.461 126.07 119.346C125.039 120.623 125.126 122.493 126.335 123.602L137.429 133.776Z" fill="#FFBB00"/>
</svg>
