<?xml version="1.0" encoding="UTF-8" standalone="no"?>
<!DOCTYPE svg PUBLIC "-//W3C//DTD SVG 1.1//EN" "http://www.w3.org/Graphics/SVG/1.1/DTD/svg11.dtd">
<svg width="100%" height="100%" viewBox="0 0 139 122" version="1.1" xmlns="http://www.w3.org/2000/svg" xmlns:xlink="http://www.w3.org/1999/xlink" xml:space="preserve" xmlns:serif="http://www.serif.com/" style="fill-rule:evenodd;clip-rule:evenodd;stroke-linejoin:round;stroke-miterlimit:2;">
    <g transform="matrix(1,0,0,1,-348.342818,-16.840954)">
        <g id="home.png" transform="matrix(0.430888,0,0,0.430888,347.617882,16.332265)">
            <path d="M31.668,52.5C31.672,49.618 30.81,43.999 36.513,43.762C38.789,43.668 94.461,43.727 99.5,43.733C106.233,43.74 107.31,44.774 107.31,51.5C107.332,272.223 107.08,272.288 107.528,273.487C108.014,274.787 108.506,274.594 124.5,274.594C144.103,274.594 144.672,274.796 145.147,273.38C145.532,272.231 145.169,212.628 145.349,207.504C145.351,207.454 146.101,203.294 142.617,205.712C140.454,207.215 134.812,209.114 129.586,204.404C122.421,197.945 118.186,193.749 122.349,186.409C123.639,184.133 144.795,164.267 154.118,155.113C155.248,154.003 164.125,145.286 168.299,141.287C170.34,139.331 186.497,123.848 193.751,116.757C206.1,104.685 213.896,96.699 216.56,95.641C225.136,92.232 228.93,98.608 239.398,108.608C254.009,122.565 253.895,122.643 255.168,123.85C264.245,132.451 269.835,138.115 271.398,139.608C273.403,141.523 290.277,157.642 296.371,163.631C303.942,171.072 303.936,171.046 311.598,178.398C318.048,184.586 323.528,188.96 319.516,196.509C318.554,198.318 311.946,204.747 310.544,205.567C301.872,210.636 298.139,203.45 296.397,205.433C296.286,205.558 296.31,205.592 296.31,237.5C296.31,273.249 296.23,273.43 296.904,274.062C297.997,275.087 308.733,274.4 314.495,274.616C320.414,274.838 320.556,282.157 314.494,282.356C313.268,282.396 7.909,282.376 7.504,282.366C3.928,282.284 2.244,279.891 3.035,277.342C3.965,274.339 7.786,274.606 8.501,274.597C30.187,274.345 30.893,275.119 31.485,273.494C31.904,272.344 31.544,146.467 31.682,140.505C31.829,134.116 38.366,134.658 39.491,138.503C39.787,139.516 39.755,139.524 39.755,253.5C39.755,273.348 39.613,273.673 40.638,274.275C41.253,274.637 41.314,274.594 78.5,274.594C97.987,274.594 98.592,274.803 99.026,273.353C99.179,272.845 99.162,272.843 99.162,75.5C99.162,52.896 99.304,52.556 98.264,51.929C97.634,51.549 97.567,51.594 60.5,51.594C40.949,51.594 40.467,51.413 39.957,52.686C39.49,53.851 39.913,101.867 39.716,105.517C39.429,110.822 32.991,111.122 31.802,106.443C31.651,105.848 31.668,105.837 31.668,52.5ZM206.5,200.376C204.256,200.383 197,199.306 192.716,205.643C190.45,208.996 190.755,209.308 190.755,239.5C190.755,273.3 190.841,273.499 190.13,274.11C189.482,274.667 189.358,274.594 165.5,274.594C154.833,274.594 153.71,275.022 153.467,272.503C153.444,272.266 153.439,198.227 153.47,197.499C153.614,194.21 157.733,191.973 162.256,187.258C162.599,186.901 165.555,183.82 162.904,181.109C159.318,177.444 155.959,182.459 147.975,189.981C139.024,198.413 137.887,201.418 134.156,197.858C129.186,193.118 128.988,192.474 129.046,191.464C129.092,190.649 129.121,190.145 135.767,183.782C168.681,152.273 168.471,152.06 171.36,149.348C177.304,143.768 177.187,143.673 183.079,138.058C191.364,130.163 201.319,120.251 203.372,118.357C215.633,107.047 218.939,102.003 221.421,102.817C223.615,103.537 236.262,116.828 243.459,123.544C243.622,123.697 266.819,146.181 268.85,148.15C281.054,159.98 281.148,159.851 293.317,171.688C309.18,187.119 309.19,187.09 310.553,188.447C314.518,192.393 312.259,193.33 308.222,197.212C303.477,201.774 302.515,198.508 294.366,190.64C276.091,172.997 276.14,172.977 274.534,171.464C267.183,164.54 230.044,128.346 228.785,127.189C227.946,126.418 221.582,120.574 214.629,125.681C213.238,126.702 202.224,137.34 200.278,139.277C190.032,149.477 185.477,153.456 179.521,159.521C174.894,164.234 179.633,167.454 182.552,166.672C185.013,166.012 200.43,149.903 204.816,145.842C218.59,133.087 218.209,132.623 219.672,131.904C222.503,130.512 227.442,137.305 241.448,150.556C252.356,160.876 275.392,183.412 285.158,192.853C288.654,196.233 288.31,196.634 288.31,201.5C288.316,272.946 288.294,272.94 288.147,273.38C287.67,274.802 287.104,274.594 269.5,274.594C251.877,274.594 251.279,274.805 250.875,273.387C250.599,272.418 250.845,215.747 250.736,211.491C250.588,205.726 246.43,202.466 243.575,201.315C240.926,200.246 240.849,200.376 206.5,200.376ZM198.755,240.5C198.755,211.257 198.619,211.066 199.699,209.657C201.007,207.951 201.43,208.181 223.5,208.181C240.16,208.181 240.938,207.789 242.349,210.565C242.814,211.481 242.755,211.545 242.755,239.5C242.755,273.298 242.84,273.5 242.13,274.11C241.482,274.667 241.358,274.594 217.5,274.594C200.197,274.594 199.967,274.731 199.126,273.752C198.705,273.262 198.755,273.164 198.755,240.5Z" style="fill-opacity:0.98;stroke:black;stroke-width:2.32px;"/>
            <path d="M178.5,2.376C182.856,2.383 186.684,1.791 186.751,7.497C186.84,15.176 186.758,15.173 186.755,103.5C186.755,104.679 187.776,112.082 182.484,111.695C177.972,111.365 178.755,105.919 178.755,99.5C178.755,11.951 178.772,11.944 178.618,11.459C178.147,9.969 177.558,10.181 159.5,10.181C71.153,10.181 71.128,10.151 70.464,10.428C69.082,11.004 69.505,12.67 69.452,28.5C69.447,29.862 69.653,31.787 68.594,33.566C67.527,35.359 61.652,37.029 61.472,30.501C61.465,30.235 61.391,7.672 61.512,6.501C62.012,1.681 64.725,2.376 79.5,2.376C112.5,2.376 145.5,2.376 178.5,2.376Z" style="fill-opacity:0.98;stroke:black;stroke-width:2.32px;"/>
            <path d="M274.493,42.411C276.038,42.222 281.73,42.031 285.265,35.387C287.454,31.274 283.044,32.06 277.5,32.06C264.531,32.06 259.949,32.703 260.56,28.511C260.981,25.621 263.16,26.059 277.5,26.059C282.75,26.059 287.348,26.877 285.222,22.627C280.777,13.742 271.394,15.677 264.501,15.465C258.972,15.295 259.088,9.681 264.5,9.483C264.928,9.468 300.565,9.465 301.5,9.486C307.147,9.614 305.481,13.711 305.109,14.203C304.154,15.464 300.882,15.472 300.5,15.473C291.276,15.496 291.29,15.405 290.49,15.408C287.504,15.42 289.043,17.469 289.167,17.635C291.453,20.678 291.625,23.172 292.309,24.602C294.009,28.151 304.838,23.658 305.614,28.48C306.33,32.933 298.853,32.034 295.495,32.061C292.523,32.084 292.493,32.695 291.626,35.539C290.225,40.138 286.496,44.718 281.612,46.773C276.815,48.791 273.582,48.321 273.458,48.328C271.484,48.434 271.563,49.576 273.117,50.789C274.062,51.527 275.598,52.976 275.807,53.173C290.984,67.486 291.038,67.404 292.32,68.685C296.319,72.681 292.547,74.617 291.511,74.666C290.533,74.713 289.521,74.761 281.848,67.15C278.569,63.897 267.291,53.497 266.385,52.62C261.496,47.887 260.519,47.165 260.512,45.5C260.495,41.554 265.335,42.686 274.493,42.411Z" style="stroke:black;stroke-width:2.32px;"/>
        </g>
    </g>
</svg>
