<svg width="14" height="14" viewBox="0 0 14 14" fill="none" xmlns="http://www.w3.org/2000/svg">
<path d="M7.35026 12.7164C8.43526 11.7796 11.6663 8.74624 11.6663 5.83366C11.6663 4.59598 11.1747 3.409 10.2995 2.53383C9.42434 1.65866 8.23735 1.16699 6.99967 1.16699C5.762 1.16699 4.57501 1.65866 3.69984 2.53383C2.82467 3.409 2.33301 4.59598 2.33301 5.83366C2.33301 8.74624 5.56409 11.7796 6.64909 12.7164C6.75017 12.7924 6.87321 12.8335 6.99967 12.8335C7.12614 12.8335 7.24918 12.7924 7.35026 12.7164Z" stroke="#FFBB00" stroke-width="1.5" stroke-linecap="round" stroke-linejoin="round"/>
<path d="M7 7.58301C7.9665 7.58301 8.75 6.79951 8.75 5.83301C8.75 4.86651 7.9665 4.08301 7 4.08301C6.0335 4.08301 5.25 4.86651 5.25 5.83301C5.25 6.79951 6.0335 7.58301 7 7.58301Z" stroke="#FFBB00" stroke-width="1.5" stroke-linecap="round" stroke-linejoin="round"/>
</svg>
