<?xml version="1.0" encoding="UTF-8" standalone="no"?>
<!DOCTYPE svg PUBLIC "-//W3C//DTD SVG 1.1//EN" "http://www.w3.org/Graphics/SVG/1.1/DTD/svg11.dtd">
<svg width="100%" height="100%" viewBox="0 0 91 98" version="1.1" xmlns="http://www.w3.org/2000/svg" xmlns:xlink="http://www.w3.org/1999/xlink" xml:space="preserve" xmlns:serif="http://www.serif.com/" style="fill-rule:evenodd;clip-rule:evenodd;stroke-linejoin:round;stroke-miterlimit:2;">
    <g transform="matrix(1,0,0,1,-667.627842,-29.555328)">
        <g id="person.png" transform="matrix(0.459641,0,0,0.459641,667.149798,29.110614)">
            <path d="M141.763,17.029C141.793,17.543 141.262,17.986 141.292,18.5C141.308,18.777 141.632,18.967 141.884,19.085C142.158,19.215 142.572,18.989 142.787,19.203C143,19.415 142.69,19.883 142.9,20.098C143.106,20.31 143.57,20.011 143.779,20.22C143.988,20.429 143.693,20.889 143.902,21.098C144.111,21.307 144.571,21.012 144.78,21.22C144.988,21.429 144.693,21.889 144.902,22.098C145.111,22.307 145.571,22.012 145.78,22.221C145.989,22.43 145.689,22.894 145.902,23.1C146.119,23.309 146.587,22.993 146.801,23.206C147.016,23.419 146.788,23.832 146.916,24.105C147.183,24.675 147.434,24.691 147.5,24.695C148.297,24.745 148.163,24.184 148.966,24.234C149.952,25.648 150.025,25.551 151.245,26.753C152.278,27.769 155.13,32.177 155.643,33.426C155.789,33.779 159.132,40.658 160.259,42.62C160.59,43.196 162.676,49.558 162.852,50.444C163.454,53.49 163.966,53.395 164.003,56.51C164.04,59.554 165.029,59.433 164.903,62.495C164.738,66.456 165.202,88.713 164.616,90.544C163.226,94.884 163.749,95.156 161.707,97.664C161.255,98.219 160.519,99.953 159.234,101.234C157.422,103.04 156.611,102.288 155.629,104.57C155.556,104.74 153.132,109.307 152.615,110.56C152.547,110.726 152.514,110.706 151.6,112.562C151.374,113.021 151.331,113.11 147.221,117.22C144.056,120.384 143.689,119.857 139.709,121.938C137.117,123.292 137.079,123.164 134.386,124.277C132.676,124.984 132.197,127.088 130.678,128.67C129.777,129.608 124.488,135.135 123.555,135.587C121.291,136.684 121.577,137.061 120.23,138.182C120.068,138.317 115.584,140.587 115.551,140.601C113.981,141.264 112.194,142.349 111.53,142.572C106.613,144.221 105.299,143.983 104.406,144.238C103.795,144.413 99.785,145.559 96.473,144.58C94.516,144.002 94.535,143.989 92.473,143.886C92.06,143.865 91.044,143.815 87.468,142.578C87.092,142.448 79.163,138.481 78.78,138.169C77.461,137.092 77.715,136.765 75.451,135.576C74.798,135.233 74.645,135.152 68.787,129.217C67.028,127.435 67.51,127.075 65.79,125.231C64.353,123.691 64.583,123.554 63.733,122.356C62.822,121.071 62.837,121.101 62.056,119.748C61.869,119.425 60.719,118.127 60.425,117.545C58.137,113.017 56.387,109.567 56.384,109.559C54.768,105.885 52.771,107.286 50.47,106.585C48.959,106.124 48.996,106.096 47.439,105.82C45.038,105.395 44.119,103.981 41.45,102.576C40.669,102.164 38.828,100.322 38.423,99.55C36.828,96.504 36.064,96.885 34.416,91.531C33.912,89.894 33.926,61.109 34.42,59.472C35.016,57.494 35.041,57.517 35.127,55.478C35.235,52.895 35.764,53.012 36.184,50.446C36.218,50.237 39.444,39.847 40.759,37.632C42.039,35.476 41.705,35.289 43.298,33.342C43.552,33.031 46.472,28.109 47.778,26.763C49.275,25.22 48.813,24.888 50.313,23.321C50.784,22.828 55.6,17.795 56.432,17.391C57.743,16.755 57.738,16.78 58.761,15.775C60.353,14.212 60.301,14.152 62.254,13.05C62.386,12.975 63.982,11.601 64.427,11.38C64.697,11.245 65.002,11.186 65.268,11.043C70.799,8.056 70.911,8.312 73.296,7.051C76.685,5.258 76.849,5.753 80.453,4.383C84.707,2.766 86.807,2.979 87.59,2.732C90.705,1.75 90.752,2.114 95.497,2.153C101.521,2.203 101.495,2.086 107.512,2.105C109.852,2.113 110.223,2.855 110.626,3.007C110.954,3.131 113.546,3.06 114.549,3.374C116.05,3.846 116.007,3.94 117.557,4.148C118.439,4.266 119.796,4.893 120.588,5.131C126.206,6.818 125.935,7.41 130.58,9.345C132.019,9.945 139.138,14.77 139.689,15.299C140.744,16.311 141.587,16.904 141.763,17.029ZM118.378,123.832C118.956,125.135 119.024,125.117 119.002,125.238C118.963,125.451 118.421,125.22 118.382,125.433C117.33,126.375 117.321,126.337 116.32,127.316C114.703,128.897 114.231,128.781 111.628,130.711C109.741,132.111 105.68,133.338 104.592,133.733C102.99,134.316 102.956,133.97 97.499,133.978C92.327,133.987 89.187,131.435 86.579,130.348C83.601,129.106 83.352,127.261 81.585,126.363C77.24,124.154 77.219,121.97 76.211,120.748C75.353,119.71 74.86,119.809 73.301,117.623C72.247,116.146 72.365,116.095 71.302,114.621C70.244,113.156 70.371,113.094 69.292,111.626C68.847,111.02 68.984,110.948 64.957,103.29C63.694,100.888 64.225,100.682 62.964,98.291C62.165,96.776 61.861,94.186 60.623,90.451C60.126,88.951 60.069,88.993 59.847,87.446C59.72,86.557 58.934,84.784 58.896,84.46C58.681,82.631 59.351,82.536 58.257,79.593C57.57,77.748 57.93,77.685 57.885,67.503C57.867,63.404 58.548,63.5 59.04,59.437C59.05,59.356 61.619,50.227 63.704,47.661C65.276,45.725 64.882,45.454 66.664,43.662C70.623,39.681 71.562,39.583 73.358,38.269C73.591,38.098 73.626,38.199 76.356,36.258C77.509,35.438 83.494,33.283 86.547,32.796C87.403,32.659 89.14,31.969 89.544,31.92C92.013,31.616 92.045,31.957 94.415,31.243C95.414,30.942 95.416,31.072 102.49,30.939C104.781,30.896 104.646,31.744 107.484,31.866C109.542,31.954 109.515,31.978 111.473,32.575C112.535,32.9 113.089,32.736 114.598,33.241C122.365,35.84 122.298,36.032 123.767,37.163C124.97,38.09 125.169,37.742 126.348,38.693C128.568,40.484 128.761,40.204 130.782,42.217C132.96,44.387 133.178,44.2 134.422,46.549C135.268,48.148 135.637,47.899 136.382,49.561C139.274,56.002 139.44,56.372 140.191,61.544C140.301,62.306 141.015,63.855 141.091,65.512C141.118,66.117 141.136,77.002 141.063,77.463C140.862,78.721 140.234,79.064 140.142,81.484C140.064,83.538 140.009,83.51 139.416,85.469C138.807,87.484 139.428,87.582 138.76,89.597C138.363,90.797 135.786,98.575 133.393,104.447C133.25,104.796 130.987,109.503 130.296,110.345C130.112,110.569 129.049,111.864 128.39,113.439C127.672,115.154 127.37,115.003 125.5,115.157C123.067,115.358 123.268,114.108 120.513,114.104C119.845,114.103 119.178,114.129 118.511,114.134C115.925,114.154 116.097,113.11 113.512,113.103C112.845,113.101 112.178,113.126 111.51,113.13C109.013,113.148 109.152,112.619 108.552,112.366C107.913,112.097 98.903,111.685 97.799,112.8C97.372,113.231 94.856,121.652 101.478,121.883C104.025,121.971 104.024,121.847 106.47,122.585C108.372,123.159 110.503,122.598 112.588,123.248C115.407,124.127 115.443,123.864 118.378,123.832ZM123.396,24.964C122.465,24.663 122.469,24.71 121.554,24.368C118.129,23.09 118.033,23.469 114.552,22.367C112.754,21.798 110.782,22.173 109.409,21.736C107.023,20.977 107.016,21.09 104.503,21.106C91.619,21.191 91.523,20.619 88.59,21.731C87.712,22.064 87.695,21.953 85.45,22.15C84.313,22.25 83.955,22.987 82.453,23.115C80.357,23.294 80.469,23.731 78.417,24.153C76.851,24.475 76.982,24.83 75.411,25.145C75.263,25.174 74.245,25.379 73.62,25.741C70.625,27.475 68.443,28.237 67.749,28.805C66.644,29.708 66.705,29.768 65.433,30.392C64.707,30.748 56.778,38.688 56.406,39.441C55.776,40.713 55.711,40.653 54.82,41.761C54.648,41.975 52.514,46.182 52.419,46.465C50.836,51.183 50.555,51.059 50.423,51.469C49.3,54.958 49.793,55.063 48.762,58.597C47.308,63.583 48.823,63.839 47.72,66.604C47.425,67.344 45.933,68.36 45.476,68.416C42.549,68.777 44.126,63.799 44.251,63.406C45.004,61.027 44.758,60.997 44.872,58.512C44.934,57.174 45.622,55.598 45.832,54.553C47.107,48.224 48.128,48.359 49.01,45.388C50.243,41.238 50.79,41.511 52.933,37.739C53.023,37.581 54.356,36.046 54.598,35.56C55.937,32.87 56.318,33.166 61.238,28.238C64.282,25.189 65.022,23.825 67.553,22.585C68.721,22.012 69.143,20.429 73.551,18.599C75.2,17.914 77.303,16.34 79.583,15.824C79.73,15.791 80.789,15.551 81.367,15.227C84.172,13.654 84.366,14.227 87.403,13.238C89.839,12.444 89.949,13.004 92.411,12.242C93.258,11.98 94.488,11.599 103.492,11.91C106.542,12.015 106.45,12.554 109.473,12.877C111.677,13.113 112.03,13.52 113.445,13.818C113.936,13.922 116.835,14.534 119.438,15.628C121.115,16.333 122.815,17.33 123.447,17.603C125.037,18.29 126.746,19.302 127.437,19.618C129.087,20.372 128.855,20.726 130.452,21.576C133.864,23.392 143.951,34.555 144.066,34.752C145.733,37.619 145.923,37.489 146.066,37.738C147.987,41.061 148.39,40.823 149.753,44.394C151.934,50.107 151.988,50.082 152.143,50.59C154.581,58.588 154.095,59.251 154.137,60.515C154.214,62.805 154.93,63.533 155.041,64.535C155.075,64.841 155.426,68.012 155.12,68.372C154.965,68.555 154.642,68.333 154.402,68.333C153.522,68.335 153.489,68.503 152.709,68.058C150.887,67.02 150.88,64.812 150.878,64.491C150.876,63.823 150.892,63.155 150.884,62.487C150.857,60.089 150.011,59.351 149.894,58.458C149.868,58.262 150.507,57.661 148.259,51.598C146.892,47.912 145.945,44.825 144.729,43.319C144.307,42.797 141.763,38.421 140.699,37.311C136.714,33.155 135.794,32.396 134.701,31.288C132.513,29.466 129.009,27.519 128.584,27.335C125.94,26.196 126.062,25.983 123.396,24.964ZM47.523,78.992C47.562,79.079 48.134,79.504 48.244,80.606C48.435,82.538 48.171,82.565 48.759,84.406C49.405,86.429 48.788,86.526 49.413,88.532C50.178,90.991 49.944,91.031 50.882,93.396C51.445,94.816 51.204,95.101 51.268,95.439C51.13,95.438 49.543,95.419 49.543,95.419C49.381,95.342 49.558,95.108 47.753,94.058C45.551,92.441 45.855,91.833 44.255,87.589C43.525,85.653 44.397,85.682 44.838,83.584C45.348,81.165 46.291,80.931 46.544,80.57C46.681,80.374 46.604,80.075 46.742,79.878L47.523,78.992ZM152.186,79.896C155.362,85.629 154.951,86.966 154.76,87.586C153.182,92.719 152.194,92.137 149.752,94.953C149.688,95.026 149.717,95.036 149.274,96.071C147.919,95.422 147.888,95.476 147.812,95.371C147.639,95.133 147.854,94.737 147.681,94.5C147.799,94.217 147.748,93.881 147.867,93.598C148.031,93.208 148.339,92.891 148.517,92.506C148.655,92.208 148.469,92.158 149.617,88.545C150.256,86.531 149.544,86.413 150.259,84.407C150.751,83.026 150.633,83.014 150.713,81.54C151.204,80.992 151.695,80.444 152.186,79.896ZM123.396,24.964C126.062,25.983 125.94,26.196 128.584,27.335C129.009,27.519 132.513,29.466 134.701,31.288C134.125,31.52 134.391,31.863 133.816,32.095C133.744,32.124 133.322,32.294 132.838,32.039C131.542,31.355 132.097,30.733 130.843,30.002C130.446,29.771 129.919,29.879 129.5,29.69C129.201,29.555 129.037,29.209 128.746,29.058C128.358,28.856 127.89,28.85 127.5,28.652C127.208,28.504 127.027,28.183 126.734,28.036C126.349,27.843 125.886,27.844 125.5,27.652C125.204,27.505 125.02,27.183 124.723,27.038C124.341,26.853 123.715,27.047 123.5,26.68C123.235,26.23 123.624,25.638 123.593,25.117C123.588,25.034 123.401,25.047 123.396,24.964ZM141.904,106.779C142.12,106.717 142.187,106.387 142.403,106.324C145.467,105.441 143.365,110.299 141.715,109.147C140.561,108.342 141.419,108.094 141.904,106.779ZM47.753,94.058C49.558,95.108 49.381,95.342 49.543,95.419C49.543,95.419 51.13,95.438 51.268,95.439C51.297,95.861 51.989,96.041 52.017,96.463C52.041,96.809 50.861,97.48 50.536,97.27C50.134,97.009 50.07,96.387 49.672,96.118C49.42,95.948 49.059,96.136 48.761,96.072C47.584,95.819 47.548,95.747 47.5,95.652C47.104,94.862 48.143,94.836 47.753,94.058ZM118.378,123.832C118.594,123.847 120.972,124.016 121,124.5C121.011,124.703 119.411,126.143 119.132,126.149C118.787,126.158 118.728,125.425 118.382,125.433C118.421,125.22 118.963,125.451 119.002,125.238C119.024,125.117 118.956,125.135 118.378,123.832ZM147.681,94.5C147.854,94.737 147.639,95.133 147.812,95.371C147.888,95.476 147.919,95.422 149.274,96.071C149.055,96.233 148.701,96.108 148.482,96.27C148.086,96.563 147.943,97.154 147.505,97.381C147.387,97.442 145.906,97.027 146.813,95.528C147.045,95.144 147.449,94.884 147.681,94.5ZM152.186,79.896C151.695,80.444 151.204,80.992 150.713,81.54C150.504,81.109 150.998,81.084 150.784,80.644C150.458,79.972 150.095,80.28 149.765,79.589C149.651,79.35 149.718,78.991 149.91,78.808C150.071,78.653 150.395,78.683 150.58,78.809C150.955,79.064 151.074,79.6 151.449,79.854C151.653,79.992 151.982,79.758 152.186,79.896Z" style="fill:white;stroke:white;stroke-width:2.18px;"/>
            <path d="M177.764,148.037C177.799,148.544 177.297,148.993 177.332,149.5C177.35,149.772 177.658,149.967 177.904,150.084C178.174,150.214 178.585,149.987 178.795,150.201C179.006,150.415 178.692,150.881 178.902,151.098C179.107,151.311 179.571,151.011 179.78,151.22C179.989,151.429 179.689,151.893 179.902,152.098C180.119,152.308 180.585,151.992 180.801,152.203C181.014,152.413 180.786,152.823 180.915,153.093C181.179,153.646 181.435,153.664 181.5,153.668C182.288,153.723 182.166,153.18 182.961,153.234C184.415,155.324 186.073,156.329 186.633,157.418C188.02,160.118 188.542,159.795 189.653,162.421C190.719,164.939 191.082,164.771 191.862,167.408C192.257,168.744 194.596,173.613 194.854,175.444C195.217,178.022 195.882,177.886 195.894,180.485C195.906,182.891 196.029,209.021 195.815,210.559C195.432,213.32 194.256,212.939 178.5,212.939C10.807,212.939 10.807,212.931 8.501,213.01C4.42,213.151 3.851,212.37 2.773,210.366C2.197,209.294 2.101,209.242 2.133,190.499C2.14,186.784 2.132,186.791 2.759,184.591C3.273,182.79 2.944,180.017 3.419,178.47C4.14,176.118 4.344,174.724 5.417,171.467C8.21,162.985 13.039,156.527 13.779,155.764C15.539,153.946 14.994,153.538 16.76,151.758C20.783,147.703 20.97,147.612 21.429,147.387C23.346,146.449 23.12,146.175 24.76,144.804C24.981,144.62 25.169,144.914 27.749,142.805C27.777,142.782 30.088,141.509 30.432,141.368C33.743,140.013 33.985,139.166 37.411,138.139C37.702,138.052 42.747,136.242 43.444,136.148C46.028,135.798 45.884,135.106 48.486,135.103C50.003,135.102 49.972,135.142 51.491,135.145C54.167,135.151 53.963,134.147 55.5,134.146C55.778,134.145 59.544,135.239 60.249,135.798C62.253,137.387 65.064,141.588 68.581,143.369C68.737,143.447 69.113,143.638 70.255,144.758C72.584,147.045 73.149,146.203 75.692,148.26C76.819,149.172 79.252,150.211 79.577,150.349C79.781,150.436 81.449,151.402 82.406,151.724C88.674,153.829 89.818,153.927 90.487,153.985C93.071,154.207 92.91,155.006 95.507,155.136C96.223,155.172 100.641,155.394 104.468,155.133C106.065,155.024 105.871,154.367 107.446,154.145C109.502,153.854 109.386,153.418 111.443,153.139C113.671,152.837 113.681,152.854 115.617,151.736C117.199,150.823 117.547,151.592 120.625,149.745C121.603,149.159 121.71,149.394 122.631,148.716C125.493,146.606 127.785,145.316 128.252,145.053C128.947,144.662 130.719,142.736 131.429,142.386C135.886,140.193 135.099,138.05 140.618,134.738C143.202,133.187 143.387,135.408 148.508,135.126C151.554,134.958 151.454,135.735 154.487,135.987C156.506,136.155 156.738,136.582 161.396,137.962C161.492,137.99 168.975,141.079 171.697,143.257C172.841,144.173 173.16,143.72 176.25,146.762C176.975,147.475 176.944,147.462 177.764,148.037ZM99.5,164.938C105.592,164.908 108.241,164.953 109.525,164.571C113.198,163.479 113.212,163.671 113.528,163.574C117.949,162.204 118.015,162.421 118.366,162.226C120.915,160.805 121.116,161.291 123.697,159.921C125.276,159.084 127.1,158.773 129.651,156.696C130.466,156.033 133.967,154.405 134.232,154.185C135.036,153.518 134.855,153.38 135.664,152.696C137.062,151.515 137.344,151.944 138.661,150.671C140.198,149.187 140.15,149.177 141.662,147.663C145.785,143.533 146.53,144.988 150.449,145.814C158.105,147.427 162.234,150.063 163.444,150.606C165.115,151.357 164.865,151.74 166.453,152.576C169.111,153.977 169.526,154.966 171.782,157.217C175.729,161.153 177.376,161.663 182.053,170.712C184.563,175.568 185.16,180.694 185.417,181.53C186.165,183.961 186.132,183.985 186.133,190.5C186.135,201.551 186.633,203.291 183.496,203.114C177.938,202.8 15.207,203.128 14.391,202.946C12.404,202.503 13.02,201.608 12.892,185.507C12.885,184.598 12.861,181.599 15.255,174.397C15.578,173.425 16.504,171.861 16.628,171.565C17.427,169.659 17.56,169.731 17.629,169.566C18.919,166.459 19.268,166.673 20.926,163.742C21.367,162.964 21.412,163.012 28.669,155.673C31.246,153.066 31.847,153.066 34.356,151.262C35.277,150.599 35.373,150.811 36.36,150.228C39.221,148.538 39.457,148.586 46.401,146.238C48.059,145.678 48.382,145.917 49.526,145.573C54.86,143.967 54.959,145.461 59.782,150.213C61.058,151.469 65.991,154.441 66.333,154.714C73.865,160.703 85.706,163.663 87.572,164.025C90.262,164.547 90.219,165.142 99.5,164.938Z" style="fill:white;stroke:white;stroke-width:2.18px;"/>
            <path d="M123.396,24.964C126.062,25.983 125.94,26.196 128.584,27.335C129.009,27.519 132.513,29.466 134.701,31.288C134.125,31.52 134.391,31.863 133.816,32.095C133.744,32.124 133.322,32.294 132.838,32.039C131.542,31.355 132.097,30.733 130.843,30.002C130.446,29.771 129.919,29.879 129.5,29.69C129.201,29.555 129.037,29.209 128.746,29.058C128.358,28.856 127.89,28.85 127.5,28.652C127.208,28.504 127.027,28.183 126.734,28.036C126.349,27.843 125.886,27.844 125.5,27.652C125.204,27.505 125.02,27.183 124.723,27.038C124.341,26.853 123.715,27.047 123.5,26.68C123.235,26.23 123.624,25.638 123.593,25.117C123.588,25.034 123.401,25.047 123.396,24.964Z" style="fill:white;stroke:white;stroke-width:2.18px;"/>
            <path d="M141.763,17.029C143.433,17.88 143.376,17.944 144.716,19.284C147.35,21.916 147.666,21.673 148.966,24.234C148.163,24.184 148.297,24.745 147.5,24.695C147.434,24.691 147.183,24.675 146.916,24.105C146.788,23.832 147.016,23.419 146.801,23.206C146.587,22.993 146.119,23.309 145.902,23.1C145.689,22.894 145.989,22.43 145.78,22.221C145.571,22.012 145.111,22.307 144.902,22.098C144.693,21.889 144.988,21.429 144.78,21.22C144.571,21.012 144.111,21.307 143.902,21.098C143.693,20.889 143.988,20.429 143.779,20.22C143.57,20.011 143.106,20.31 142.9,20.098C142.69,19.883 143,19.415 142.787,19.203C142.572,18.989 142.158,19.215 141.884,19.085C141.632,18.967 141.308,18.777 141.292,18.5C141.262,17.986 141.793,17.543 141.763,17.029Z" style="fill:white;stroke:white;stroke-width:2.18px;"/>
            <path d="M177.764,148.037C178.178,148.246 180.166,149.25 182.211,151.748C182.296,151.851 182.267,151.858 182.961,153.234C182.166,153.18 182.288,153.723 181.5,153.668C181.435,153.664 181.179,153.646 180.915,153.093C180.786,152.823 181.014,152.413 180.801,152.203C180.585,151.992 180.119,152.308 179.902,152.098C179.689,151.893 179.989,151.429 179.78,151.22C179.571,151.011 179.107,151.311 178.902,151.098C178.692,150.881 179.006,150.415 178.795,150.201C178.585,149.987 178.174,150.214 177.904,150.084C177.658,149.967 177.35,149.772 177.332,149.5C177.297,148.993 177.799,148.544 177.764,148.037Z" style="fill:white;stroke:white;stroke-width:2.18px;"/>
            <path d="M141.904,106.779C142.12,106.717 142.187,106.387 142.403,106.324C145.467,105.441 143.365,110.299 141.715,109.147C140.561,108.342 141.419,108.094 141.904,106.779Z" style="fill:white;stroke:white;stroke-width:2.18px;"/>
            <path d="M47.753,94.058C49.558,95.108 49.381,95.342 49.543,95.419C49.543,95.419 51.13,95.438 51.268,95.439C51.297,95.861 51.989,96.041 52.017,96.463C52.041,96.809 50.861,97.48 50.536,97.27C50.134,97.009 50.07,96.387 49.672,96.118C49.42,95.948 49.059,96.136 48.761,96.072C47.584,95.819 47.548,95.747 47.5,95.652C47.104,94.862 48.143,94.836 47.753,94.058Z" style="fill:white;stroke:white;stroke-width:2.18px;"/>
            <path d="M118.378,123.832C118.594,123.847 120.972,124.016 121,124.5C121.011,124.703 119.411,126.143 119.132,126.149C118.787,126.158 118.728,125.425 118.382,125.433C118.421,125.22 118.963,125.451 119.002,125.238C119.024,125.117 118.956,125.135 118.378,123.832Z" style="fill:white;stroke:white;stroke-width:2.18px;"/>
            <path d="M147.681,94.5C147.854,94.737 147.639,95.133 147.812,95.371C147.888,95.476 147.919,95.422 149.274,96.071C149.055,96.233 148.701,96.108 148.482,96.27C148.086,96.563 147.943,97.154 147.505,97.381C147.387,97.442 145.906,97.027 146.813,95.528C147.045,95.144 147.449,94.884 147.681,94.5Z" style="fill:white;stroke:white;stroke-width:2.18px;"/>
            <path d="M152.186,79.896C151.695,80.444 151.204,80.992 150.713,81.54C150.504,81.109 150.998,81.084 150.784,80.644C150.458,79.972 150.095,80.28 149.765,79.589C149.651,79.35 149.718,78.991 149.91,78.808C150.071,78.653 150.395,78.683 150.58,78.809C150.955,79.064 151.074,79.6 151.449,79.854C151.653,79.992 151.982,79.758 152.186,79.896Z" style="fill:white;stroke:white;stroke-width:2.18px;"/>
        </g>
    </g>
</svg>
