<?xml version="1.0" encoding="UTF-8" standalone="no"?>
<!DOCTYPE svg PUBLIC "-//W3C//DTD SVG 1.1//EN" "http://www.w3.org/Graphics/SVG/1.1/DTD/svg11.dtd">
<svg width="100%" height="100%" viewBox="0 0 419 425" version="1.1" xmlns="http://www.w3.org/2000/svg" xmlns:xlink="http://www.w3.org/1999/xlink" xml:space="preserve" xmlns:serif="http://www.serif.com/" style="fill-rule:evenodd;clip-rule:evenodd;stroke-linejoin:round;stroke-miterlimit:2;">
    <g transform="matrix(1,0,0,1,-189.493632,-484.557832)">
        <g>
            <g id="Ellipse-15.png" serif:id="Ellipse 15.png" transform="matrix(1,0,0,1,188,483)">
                <path d="M213.966,397.495C214.14,399.017 214.125,399.005 214.463,400.51C214.72,401.652 215.119,417.338 214.472,419.49C214.421,419.661 214.414,419.655 213.504,421.503C212.634,423.269 210.403,424.064 209.611,424.673C208.899,425.219 208.977,425.875 203.495,425.705C200.942,425.626 201.035,425.022 198.486,424.878C194.995,424.682 194.978,424.973 191.586,424.202C188.169,423.425 184.856,424.407 180.602,423.183C180.284,423.092 180.27,423.16 176.59,422.217C173.861,421.517 173.557,422.381 169.604,421.192C167.62,420.596 167.595,420.759 165.603,420.186C163.146,419.48 163.055,419.974 160.617,419.18C158.167,418.382 158.027,419.055 155.626,418.167C151.818,416.757 151.493,416.813 150.471,416.665C148.881,416.434 149.014,416.071 147.497,415.506C146.005,414.95 146.02,414.947 144.467,414.666C142.276,414.268 142.627,413.395 140.425,412.853C140.107,412.775 139.775,412.774 139.454,412.71C137.644,412.35 137.569,411.779 134.43,410.75C133.948,410.592 133.965,410.558 128.527,408.445C127.463,408.031 127.664,407.703 126.626,407.241C126.169,407.039 123.923,406.317 123.643,406.171C123.061,405.868 123.085,405.849 122.44,405.695C122.296,405.661 120.998,405.35 120.669,405.157C120.531,405.076 120.505,404.864 120.366,404.784C119.576,404.326 119.455,404.645 118.675,404.16C118.535,404.073 118.506,403.858 118.365,403.773C117.629,403.329 117.493,403.624 116.799,403.105C116.02,402.522 116.203,402.197 114.427,401.709C114.126,401.626 113.797,401.603 113.531,401.44C113.37,401.34 113.393,401.043 113.221,400.965C113.086,400.904 112.936,401.17 112.802,401.109C112.517,400.98 112.644,400.409 110.493,399.513C110.22,399.399 109.932,399.313 109.678,399.16C109.54,399.076 109.481,398.888 109.336,398.815C108.804,398.548 108.207,398.429 107.678,398.156C107.533,398.081 107.49,397.876 107.35,397.792C107.096,397.639 106.767,397.632 106.522,397.463C106.36,397.351 106.333,397.104 106.178,396.983C105.504,396.461 105.387,396.684 104.684,396.194C104.109,395.792 104.136,395.786 103.511,395.482C102.737,395.105 101.621,394.043 101.297,393.874C100.776,393.602 100.2,393.443 99.684,393.162C99.536,393.081 99.475,392.887 99.33,392.8C99.08,392.65 98.761,392.632 98.522,392.464C98.361,392.351 98.33,392.109 98.175,391.989C97.501,391.469 97.388,391.692 96.692,391.192C96.131,390.789 96.158,390.774 95.518,390.472C94.663,390.069 93.505,388.923 93.316,388.806C93.071,388.654 92.754,388.637 92.52,388.468C92.355,388.349 92.322,388.099 92.162,387.973C91.499,387.45 91.374,387.69 90.691,387.193C90.546,387.087 90.475,386.895 90.322,386.801C90.075,386.649 89.751,386.644 89.518,386.472C89.349,386.347 89.331,386.08 89.168,385.947C88.515,385.417 88.359,385.711 87.703,385.191C87.55,385.069 87.497,384.847 87.343,384.726C87.131,384.562 86.826,384.54 86.63,384.358C86.454,384.194 86.432,383.91 86.272,383.731C85.843,383.253 85.354,382.913 85.266,382.852C85.036,382.692 84.735,382.653 84.51,382.485C84.34,382.358 84.273,382.124 84.109,381.988C83.924,381.834 83.91,381.858 81.69,380.21C81.124,379.789 81.071,379.897 80.516,379.476C80.345,379.347 80.303,379.092 80.136,378.958C79.499,378.446 79.347,378.726 78.701,378.2C78.546,378.074 78.502,377.84 78.344,377.718C78.132,377.555 77.817,377.551 77.622,377.368C77.442,377.198 77.438,376.899 77.277,376.711C77.122,376.531 76.87,376.459 76.699,376.295C76.537,376.14 76.459,375.909 76.288,375.763C76.093,375.595 75.81,375.549 75.622,375.372C75.445,375.206 75.385,374.942 75.223,374.761C75.151,374.681 74.692,374.169 74.243,373.85C74.021,373.692 73.724,373.655 73.509,373.487C73.337,373.351 73.279,373.103 73.111,372.961C72.912,372.792 72.621,372.752 72.431,372.573C72.259,372.411 72.226,372.137 72.057,371.971C71.88,371.797 71.601,371.753 71.422,371.58C71.253,371.417 71.208,371.152 71.04,370.986C70.877,370.826 70.73,371.035 68.826,369.169C68.059,368.416 68.119,368.389 59.384,359.614C58.633,358.86 58.579,358.938 57.838,358.171C57.67,357.997 57.583,357.755 57.413,357.583C57.246,357.416 57.004,357.336 56.839,357.166C55.341,355.631 55.819,355.241 54.224,353.798C54.043,353.635 53.79,353.559 53.623,353.382C53.545,353.3 53.604,353.263 52.705,352.306C52.542,352.132 52.457,351.891 52.278,351.734C52.094,351.572 51.809,351.546 51.639,351.369C51.457,351.179 51.425,350.881 51.263,350.673C51.141,350.516 50.928,350.45 50.804,350.295C50.634,350.083 50.572,349.796 50.394,349.59C50.298,349.479 49.034,348.559 48.521,347.486C47.306,344.942 46.325,345.083 45.521,343.486C44.543,341.543 43.935,341.707 43.637,341.377C43.455,341.176 43.448,340.86 43.285,340.643C43.173,340.494 42.93,340.47 42.836,340.309C42.557,339.827 42.801,339.712 41.797,338.313C40.119,335.977 39.545,334.862 39.349,334.616C39.071,334.268 38.954,334.381 38.495,333.503C37.697,331.979 37.553,332.091 36.886,331.199C35.98,329.99 36.294,329.812 35.344,328.618C35.085,328.293 34.954,328.403 34.504,327.498C34.425,327.339 33.869,326.223 33.367,325.599C33.079,325.242 32.931,325.356 32.524,324.486C31.652,322.624 31.373,322.82 30.886,322.197C30.722,321.988 30.638,321.725 30.535,321.479C30.42,321.205 30.387,320.895 30.234,320.641C30.147,320.496 29.928,320.467 29.84,320.323C29.682,320.064 29.29,318.728 29.249,318.587C28.785,317.006 28.554,317.129 27.887,316.207C26.994,314.972 27.357,314.76 26.395,313.576C26.06,313.165 25.778,313.332 25.292,311.571C25.245,311.402 24.949,310.329 24.372,309.588C24.11,309.251 23.777,309.427 23.289,307.566C23.244,307.397 22.95,306.275 22.391,305.574C22.097,305.205 21.747,305.396 21.303,303.562C21.245,303.319 21.013,302.359 20.176,300.647C20.109,300.509 19.92,300.463 19.843,300.33C19.379,299.535 19.667,299.428 19.211,298.632C19.131,298.493 18.921,298.466 18.836,298.33C18.351,297.547 18.678,297.423 18.214,296.627C18.115,296.459 17.655,296.587 17.327,294.538C17.276,294.216 17.267,293.889 17.217,293.567C17.107,292.861 15.307,288.119 15.1,287.684C15.059,287.598 14.682,287.361 14.234,285.568C13.601,283.035 13.178,282.953 12.845,282.335C12.371,281.458 12.064,278.75 12.03,278.649C11.973,278.483 11.63,277.477 11.172,276.637C10.945,276.22 10.777,276.32 10.537,275.486C10.003,273.636 10.592,273.513 9.464,270.516C8.853,268.894 8.502,269.023 8.328,267.527C8.252,266.871 8.252,266.208 8.187,265.552C8.063,264.315 7.644,264.108 7.293,262.548C6.91,260.849 6.462,260.979 6.331,259.524C6.197,258.031 6.354,258.033 6.181,256.55C5.997,254.97 5.584,255.089 5.328,253.527C5.274,253.2 5.26,252.866 5.217,252.537C4.99,250.778 4.477,250.915 4.325,249.522C4.239,248.743 4.451,244.817 3.8,242.408C2.157,236.333 4.103,235.805 2.518,229.495C1.848,226.824 1.788,200.495 2.526,197.507C4.03,191.419 2.222,191.183 3.806,184.595C4.573,181.404 3.832,179.744 4.826,176.61C5.453,174.633 5.22,174.588 5.809,172.605C6.647,169.781 5.952,167.212 6.837,165.654C6.906,165.531 7.089,165.5 7.156,165.376C7.869,164.054 8.093,162.681 8.133,162.436C8.24,161.787 8.228,161.122 8.315,160.47C8.427,159.631 10.105,154.846 10.171,154.443C10.277,153.792 10.243,153.124 10.33,152.47C10.349,152.329 10.472,151.396 10.896,150.785C10.95,150.707 11.677,150.343 12.123,148.427C12.493,146.834 12.347,146.804 13.076,145.321C14.078,143.283 14.381,140.547 14.842,139.665C14.91,139.534 15.069,139.464 15.133,139.331C15.657,138.225 17.793,131.76 17.845,131.663C17.914,131.534 18.084,131.481 18.153,131.352C18.594,130.537 18.387,130.464 18.826,129.641C19.132,129.064 19.138,129.088 19.295,128.439C19.33,128.295 19.638,127.023 19.843,126.668C19.921,126.532 20.12,126.496 20.198,126.36C20.648,125.57 20.379,125.465 20.842,124.672C20.921,124.537 21.103,124.484 21.181,124.348C21.332,124.087 21.39,123.782 21.515,123.508C22.011,122.419 22.705,122.226 23.171,120.418C23.252,120.103 23.245,119.77 23.309,119.451C23.371,119.138 23.385,118.798 23.55,118.525C23.648,118.361 23.928,118.385 24.043,118.233C24.128,118.121 23.901,118.01 24.798,116.652C25.173,116.083 25.121,116.076 25.333,115.435C25.707,114.309 26.729,113.875 27.004,113.268C27.065,113.135 26.902,113.09 27.547,111.525C27.955,110.536 28.194,110.631 28.366,110.404C28.948,109.642 29.227,108.59 29.271,108.422C29.352,108.118 29.364,107.781 29.528,107.513C29.627,107.353 29.947,107.396 30.01,107.219C30.075,107.037 29.776,106.855 29.828,106.67C29.873,106.504 30.156,106.514 30.246,106.367C30.4,106.111 30.35,105.757 30.526,105.515C30.647,105.349 30.945,105.392 31.074,105.232C31.624,104.553 31.29,104.389 31.807,103.689C31.913,103.545 32.118,103.49 32.211,103.338C32.366,103.089 32.362,102.759 32.53,102.518C32.643,102.357 32.897,102.339 33.018,102.184C33.541,101.51 33.302,101.386 33.803,100.686C34.212,100.115 34.222,100.146 34.522,99.514C34.91,98.697 35.965,97.619 36.158,97.303C36.309,97.055 36.388,96.77 36.515,96.51C36.905,95.713 37.963,94.614 38.156,94.301C38.307,94.054 38.389,93.77 38.517,93.511C38.91,92.716 40.015,91.561 40.17,91.309C40.322,91.062 40.356,90.751 40.524,90.516C40.644,90.348 40.883,90.297 41.01,90.135C41.524,89.484 41.306,89.368 41.803,88.691C41.91,88.545 42.103,88.473 42.198,88.319C42.35,88.073 42.356,87.75 42.529,87.519C42.656,87.349 42.923,87.331 43.058,87.168C43.563,86.556 43.303,86.401 43.844,85.814C43.996,85.648 44.231,85.57 44.377,85.398C44.555,85.191 44.633,84.913 44.799,84.696C44.913,84.548 45.109,84.472 45.207,84.314C45.358,84.072 45.359,83.749 45.531,83.52C45.658,83.351 45.929,83.339 46.064,83.176C46.238,82.964 46.248,82.644 46.427,82.435C46.573,82.264 46.847,82.242 47.003,82.078C47.528,81.525 47.311,81.382 47.837,80.811C48.896,79.664 48.917,79.706 49.177,79.291C49.327,79.051 49.35,78.739 49.523,78.515C49.655,78.343 49.92,78.313 50.06,78.147C50.231,77.942 50.249,77.633 50.428,77.434C50.583,77.262 50.863,77.243 51.025,77.077C51.548,76.538 51.304,76.373 51.837,75.829C51.955,75.709 52.013,75.776 53.382,74.388C53.616,74.15 55.586,72.151 56.154,71.264C56.304,71.03 56.348,70.733 56.52,70.514C56.654,70.342 56.906,70.292 57.046,70.124C57.215,69.922 57.246,69.624 57.425,69.43C57.587,69.255 57.868,69.225 58.035,69.055C58.362,68.722 58.226,68.211 59.417,67.419C59.615,67.288 59.854,67.209 60.02,67.04C60.193,66.865 60.239,66.59 60.41,66.412C60.574,66.242 60.835,66.189 61.001,66.021C61.518,65.496 61.315,65.353 61.833,64.829C63.574,63.07 63.632,63.164 65.402,61.4C66.162,60.643 66.076,60.584 66.834,59.837C67.005,59.669 67.249,59.586 67.419,59.416C67.587,59.248 67.663,59.002 67.832,58.835C68.002,58.666 68.251,58.591 68.421,58.421C68.59,58.252 68.663,58.003 68.832,57.834C69.003,57.664 69.254,57.591 69.423,57.421C69.591,57.253 69.66,57.001 69.829,56.834C70.002,56.664 70.257,56.596 70.432,56.428C70.949,55.932 70.868,55.844 71.51,55.514C72.561,54.975 72.465,54.846 74.697,52.703C74.867,52.539 75.112,52.459 75.267,52.281C75.428,52.094 75.445,51.803 75.624,51.633C75.817,51.45 76.122,51.43 76.332,51.268C76.49,51.147 76.548,50.926 76.703,50.8C76.914,50.629 77.204,50.573 77.41,50.395C77.584,50.245 77.65,49.997 77.817,49.839C77.997,49.67 78.256,49.599 78.434,49.428C78.888,48.991 78.782,48.871 79.515,48.522C81.309,47.667 81.24,47.337 81.813,46.883C82.672,46.202 82.814,46.427 83.653,45.671C84.638,44.784 84.535,44.708 84.619,44.632C84.701,44.559 84.699,44.577 85.702,43.804C87.151,42.688 87.346,42.588 87.504,42.507C89.197,41.642 89.058,41.456 89.804,40.88C90.679,40.204 90.806,40.415 91.657,39.681C91.844,39.519 92.077,39.409 92.245,39.227C92.403,39.056 92.446,38.792 92.621,38.638C92.825,38.46 93.13,38.431 93.344,38.265C93.498,38.146 93.547,37.925 93.699,37.805C93.916,37.633 94.216,37.585 94.427,37.407C94.761,37.125 94.601,36.917 95.518,36.529C95.788,36.415 96.091,36.374 96.343,36.225C96.49,36.137 96.531,35.919 96.682,35.837C97.373,35.463 97.46,35.667 98.685,34.802C100.369,33.614 100.355,33.603 100.517,33.527C102.475,32.604 102.261,32.314 102.805,31.883C103.013,31.718 103.275,31.635 103.517,31.528C103.788,31.409 104.09,31.356 104.344,31.204C104.486,31.119 104.529,30.911 104.675,30.835C105.2,30.56 105.793,30.434 106.323,30.168C106.468,30.096 106.531,29.908 106.675,29.833C107.223,29.547 107.307,29.744 108.678,28.797C108.91,28.638 109.188,28.549 109.407,28.372C109.697,28.138 109.556,27.952 110.516,27.528C110.587,27.496 120.079,22.668 120.507,22.517C121.528,22.156 122.37,22.117 123.4,21.352C123.642,21.173 123.549,20.794 125.428,20.268C128.048,19.535 127.808,18.932 130.419,18.224C131.488,17.934 131.521,18.01 132.403,17.351C132.693,17.134 132.547,16.762 134.443,16.296C135.523,16.031 135.488,15.962 136.501,15.503C136.781,15.376 137.103,15.35 137.369,15.198C137.419,15.17 137.538,14.644 139.463,14.32C141.023,14.057 141.025,14.119 142.485,13.467C142.767,13.341 143.08,13.286 143.352,13.141C143.687,12.963 143.58,12.705 145.449,12.301C147.014,11.963 146.899,11.657 148.451,11.308C150.015,10.955 149.893,10.577 151.471,10.339C151.795,10.291 152.125,10.286 152.449,10.241C154.318,9.985 154.173,9.416 156.465,9.186C160.11,8.822 161.552,7.411 164.474,7.189C166.998,6.998 167.073,7.237 169.351,6.11C169.655,5.959 169.572,5.797 170.513,5.538C173.664,4.672 173.841,5.82 178.503,4.509C179.661,4.183 181.162,4.085 181.383,4.018C181.719,3.916 182.309,3.344 184.491,3.277C190.609,3.088 190.65,3.456 194.512,2.541C197.178,1.91 223.797,1.885 226.489,2.538C232.661,4.035 234.502,2.366 239.394,3.821C241.844,4.549 241.923,4.132 244.398,4.817C246.728,5.461 248.887,5.052 250.489,5.534C253.974,6.58 253.892,6.939 257.523,7.233C260.624,7.485 260.369,8.445 263.425,8.992C264.494,9.183 265.629,9.252 266.493,9.519C267.616,9.864 267.573,10.003 269.532,10.332C271.403,10.645 272.456,11.663 274.573,12.164C274.891,12.239 275.221,12.244 275.542,12.305C277.381,12.656 278.68,13.737 280.568,14.183C280.886,14.258 281.218,14.253 281.539,14.312C283.333,14.641 283.493,15.271 286.562,16.277C289.132,17.12 289.002,17.399 291.562,18.289C293.005,18.791 293.017,18.765 293.203,18.898C293.368,19.014 293.435,19.236 293.595,19.358C295.181,20.562 295.557,19.768 297.207,20.897C297.371,21.009 297.464,21.204 297.624,21.321C298.453,21.927 300.882,22.576 301.361,22.822C301.952,23.125 301.928,23.132 302.567,23.298C302.87,23.378 303.202,23.396 303.472,23.556C303.63,23.651 303.608,23.942 303.776,24.018C303.912,24.079 304.068,23.827 304.204,23.888C304.309,23.934 304.219,24.038 305.321,24.8C306.264,25.452 306.348,25.259 307.327,25.835C307.463,25.915 307.53,26.087 307.67,26.158C308.203,26.427 308.792,26.571 309.323,26.843C309.465,26.916 309.527,27.098 309.665,27.178C309.922,27.327 310.219,27.395 310.488,27.52C311.75,28.108 311.514,28.431 312.715,29.095C313.493,29.526 313.548,29.363 314.332,29.819C317.274,31.531 317.4,31.289 318.191,31.893C318.357,32.02 318.433,32.241 318.596,32.372C319.783,33.325 319.99,32.971 321.19,33.891C321.356,34.018 321.442,34.231 321.606,34.361C321.689,34.427 322.305,34.917 322.706,35.128C323.225,35.401 323.801,35.557 324.315,35.839C324.464,35.921 324.525,36.118 324.671,36.205C324.921,36.354 325.243,36.363 325.48,36.532C325.644,36.649 325.669,36.902 325.828,37.027C326.492,37.549 326.622,37.302 327.307,37.808C327.452,37.915 327.52,38.111 327.674,38.206C327.92,38.358 328.244,38.364 328.48,38.533C328.645,38.652 328.668,38.908 328.828,39.035C329.492,39.56 329.627,39.302 330.309,39.804C330.455,39.912 330.52,40.114 330.675,40.209C330.922,40.361 331.252,40.352 331.484,40.525C331.654,40.651 331.659,40.93 331.823,41.063C332.475,41.592 332.639,41.276 333.303,41.801C333.456,41.922 333.505,42.147 333.659,42.266C333.872,42.431 334.181,42.45 334.379,42.633C334.556,42.798 334.574,43.084 334.734,43.265C334.895,43.447 335.139,43.538 335.321,43.7C335.474,43.836 335.565,44.038 335.733,44.155C335.962,44.314 336.266,44.348 336.49,44.514C336.659,44.639 336.712,44.885 336.883,45.007C337.326,45.321 337.855,45.499 338.306,45.802C338.46,45.906 338.522,46.117 338.68,46.214C338.924,46.365 339.257,46.35 339.483,46.526C339.658,46.663 339.647,46.961 339.817,47.104C340.025,47.278 340.36,47.251 340.563,47.431C340.737,47.586 340.717,47.891 340.886,48.052C341.479,48.617 341.667,48.281 342.301,48.798C342.455,48.924 342.499,49.157 342.657,49.28C342.868,49.444 343.184,49.448 343.377,49.633C343.556,49.803 343.554,50.104 343.715,50.291C343.871,50.473 344.125,50.545 344.3,50.709C344.463,50.862 344.548,51.088 344.718,51.233C344.913,51.399 345.191,51.451 345.377,51.627C345.553,51.795 345.615,52.057 345.778,52.238C345.85,52.318 346.296,52.814 346.76,53.143C346.983,53.301 347.278,53.341 347.492,53.511C347.667,53.649 347.725,53.9 347.895,54.044C348.092,54.211 348.382,54.248 348.571,54.424C348.742,54.584 348.771,54.857 348.939,55.02C349.475,55.542 349.632,55.309 350.171,55.836C350.929,56.576 350.839,56.639 351.601,57.396C351.835,57.628 351.841,57.615 353.295,58.795C353.451,58.921 353.536,59.121 353.694,59.244C353.9,59.404 354.185,59.452 354.371,59.634C354.549,59.808 354.585,60.091 354.75,60.278C354.904,60.453 355.14,60.538 355.31,60.699C355.469,60.849 355.549,61.08 355.729,61.204C355.954,61.36 356.279,61.339 356.49,61.514C356.67,61.664 356.657,61.976 356.836,62.127C357.432,62.626 357.636,62.256 358.193,62.807C358.365,62.977 358.411,63.249 358.582,63.419C358.753,63.589 359.026,63.631 359.196,63.802C359.367,63.975 359.412,64.247 359.58,64.423C359.946,64.806 360.121,64.657 360.483,65.511C361.377,67.616 364.141,69.784 365.163,70.83C365.332,71.003 365.408,71.253 365.58,71.424C365.748,71.591 366,71.659 366.167,71.828C366.337,72.001 366.404,72.257 366.572,72.431C367.044,72.921 367.141,72.823 367.482,73.513C368.371,75.314 369.003,75.243 369.362,75.627C369.543,75.82 369.588,76.109 369.75,76.318C369.871,76.474 370.074,76.552 370.197,76.706C370.366,76.917 370.439,77.197 370.617,77.402C370.765,77.574 371.003,77.651 371.159,77.817C371.328,77.996 371.406,78.251 371.58,78.425C371.748,78.592 372.002,78.655 372.167,78.824C372.338,78.998 372.4,79.261 372.57,79.436C372.947,79.823 373.105,79.684 373.474,80.517C374.307,82.391 374.613,82.185 375.114,82.814C376.05,83.989 375.709,84.202 376.672,85.363C376.743,85.45 377.166,85.96 377.603,86.407C377.765,86.573 377.999,86.657 378.159,86.825C378.328,87.003 378.405,87.256 378.576,87.433C378.949,87.817 379.096,87.689 379.471,88.519C379.59,88.782 379.652,89.073 379.801,89.321C379.89,89.469 380.084,89.534 380.169,89.684C380.248,89.823 380.389,90.59 381.313,91.661C381.475,91.849 381.581,92.084 381.763,92.251C381.936,92.409 382.207,92.445 382.363,92.621C382.543,92.826 382.571,93.132 382.735,93.35C382.844,93.496 383.074,93.53 383.163,93.689C383.451,94.199 383.575,94.788 383.84,95.311C383.915,95.458 384.093,95.533 384.173,95.677C385.24,97.611 385.128,97.673 385.763,98.26C385.934,98.418 386.207,98.447 386.359,98.623C386.538,98.83 386.552,99.145 386.717,99.364C386.827,99.51 387.061,99.533 387.16,99.686C387.321,99.933 387.377,100.235 387.467,100.516C387.946,101.997 387.689,102.143 388.785,103.247C389.107,103.572 389.308,103.426 389.682,104.424C390.072,105.466 389.983,105.504 390.657,106.386C390.881,106.68 391.034,106.564 391.485,107.509C393.455,111.638 393.955,111.341 394.469,112.519C394.588,112.792 394.635,113.099 394.789,113.354C394.873,113.495 395.076,113.534 395.162,113.673C395.644,114.458 395.341,114.573 395.792,115.359C395.873,115.5 396.08,115.533 396.165,115.672C396.644,116.451 396.352,116.566 396.8,117.353C396.879,117.492 397.078,117.534 397.161,117.671C397.632,118.454 397.331,118.571 397.785,119.362C397.866,119.504 398.077,119.534 398.163,119.673C398.642,120.447 398.338,120.563 398.794,121.36C398.873,121.498 399.078,121.531 399.157,121.669C399.516,122.293 399.321,123.007 400.181,124.639C400.611,125.454 400.43,125.517 400.864,126.338C401.181,126.939 401.257,126.879 401.501,127.5C402.089,128.997 402.337,128.881 402.74,130.431C403.424,133.061 404.074,132.812 404.751,135.43C405.442,138.1 405.959,137.89 406.477,139.509C407.013,141.184 406.863,141.216 406.917,141.358C407.067,141.758 407.325,142.11 407.499,142.501C407.623,142.782 407.656,143.102 407.808,143.369C407.818,143.387 408.373,143.588 408.678,145.465C408.73,145.79 408.738,146.12 408.783,146.446C408.931,147.531 409.063,147.483 409.502,148.499C409.625,148.783 409.656,149.106 409.809,149.374C410.025,149.755 410.23,149.636 410.475,150.509C410.688,151.265 410.85,153.947 410.986,154.341C411.793,156.694 412.523,156.474 412.715,159.477C412.88,162.051 413.599,161.91 413.799,164.474C413.947,166.388 413.863,166.398 414.529,168.49C415.074,170.202 414.942,170.211 414.989,170.358C415.118,170.754 415.341,171.114 415.471,171.509C415.891,172.786 415.612,174.578 416.18,176.604C416.709,178.495 416.641,178.498 416.863,180.45C417.074,182.308 417.642,182.19 417.735,184.489C417.751,184.888 417.717,184.884 417.89,189.479C417.987,192.039 418.568,191.941 418.734,194.487C418.887,196.843 418.71,198.846 419.185,200.594C419.764,202.722 419.725,202.742 419.74,213.5C419.756,225.26 419.534,225.252 419.473,225.492C418.14,230.811 419.333,230.967 418.463,234.489C417.138,239.848 418.262,241.463 417.474,244.492C417.394,244.799 417.271,245.093 417.184,245.398C416.477,247.852 416.868,247.92 416.184,250.399C415.527,252.779 416.023,255.552 415.157,257.349C414.359,259.007 414.105,258.953 413.813,262.528C413.599,265.152 412.925,265.02 412.724,267.527C412.705,267.756 412.557,269.597 412.158,270.346C412.093,270.468 411.923,270.51 411.86,270.632C411.745,270.852 411.096,272.096 410.846,273.569C410.736,274.216 410.753,274.879 410.669,275.529C410.457,277.179 410.016,277.018 409.18,279.374C408.525,281.22 408.653,282.44 408.157,283.338C408.085,283.467 407.896,283.506 407.832,283.639C406.988,285.389 406.448,288.449 406.436,288.47C406.351,288.623 406.065,288.59 405.993,288.749C405.929,288.892 406.165,289.063 406.103,289.207C406.064,289.298 405.611,289.42 405.218,290.369C404.719,291.569 404.611,293.144 404.431,293.467C404.346,293.621 404.07,293.607 403.997,293.767C403.936,293.903 404.16,294.066 404.1,294.202C404.032,294.352 403.676,294.31 403.214,295.364C402.927,296.021 402.337,297.998 402.157,298.329C402.084,298.464 401.915,298.532 401.849,298.669C401.403,299.593 400.149,303.322 400.148,303.323C400.067,303.462 399.862,303.499 399.783,303.639C399.335,304.434 399.617,304.537 399.157,305.33C399.08,305.464 398.895,305.512 398.82,305.647C398.375,306.44 398.625,306.535 398.158,307.325C398.078,307.461 397.895,307.518 397.818,307.657C397.375,308.452 397.617,308.543 397.16,309.329C397.082,309.463 396.907,309.524 396.831,309.659C396.386,310.453 396.625,310.538 396.159,311.324C396.077,311.461 395.895,311.519 395.817,311.658C395.372,312.453 395.623,312.549 395.158,313.324C395.075,313.462 394.886,313.514 394.806,313.654C394.355,314.446 394.623,314.549 394.157,315.324C394.074,315.463 393.879,315.51 393.797,315.649C393.644,315.905 393.59,316.209 393.468,316.481C392.904,317.743 392.548,317.495 391.873,318.694C391.434,319.475 391.626,319.546 391.167,320.324C391.084,320.463 390.912,320.538 390.84,320.682C390.574,321.211 390.435,321.799 390.16,322.323C390.085,322.468 389.888,322.519 389.805,322.659C389.653,322.913 389.639,323.239 389.469,323.481C389.354,323.645 389.105,323.673 388.982,323.831C388.459,324.5 388.686,324.61 388.192,325.315C387.397,326.45 387.578,326.534 387.157,327.317C387.077,327.466 386.864,327.509 386.777,327.655C386.627,327.907 386.635,328.24 386.464,328.478C386.346,328.643 386.078,328.647 385.952,328.806C385.416,329.48 385.693,329.618 385.189,330.307C385.083,330.452 384.886,330.517 384.793,330.67C384.64,330.917 384.636,331.242 384.467,331.48C384.35,331.644 384.096,331.666 383.972,331.824C383.448,332.49 383.701,332.622 383.194,333.308C383.087,333.454 382.889,333.521 382.794,333.675C382.642,333.922 382.641,334.247 382.47,334.481C382.348,334.647 382.083,334.662 381.954,334.823C381.427,335.482 381.697,335.625 381.191,336.306C381.083,336.452 380.879,336.514 380.783,336.669C380.63,336.915 380.637,337.245 380.463,337.476C380.336,337.645 380.058,337.648 379.926,337.812C379.4,338.463 379.724,338.627 379.193,339.3C379.071,339.454 378.845,339.499 378.725,339.654C378.56,339.866 378.543,340.175 378.359,340.372C378.195,340.548 377.907,340.564 377.727,340.724C377.544,340.887 377.456,341.134 377.294,341.318C377.16,341.471 376.961,341.563 376.845,341.729C376.685,341.96 376.648,342.262 376.482,342.488C376.358,342.656 376.117,342.714 375.997,342.884C375.683,343.328 375.499,343.854 375.197,344.306C375.095,344.459 374.891,344.529 374.795,344.686C374.644,344.929 374.647,345.255 374.471,345.481C374.337,345.654 374.051,345.657 373.91,345.825C373.737,346.033 373.748,346.359 373.569,346.561C373.417,346.733 373.123,346.726 372.965,346.892C372.408,347.479 372.708,347.656 372.194,348.295C372.07,348.449 371.85,348.507 371.729,348.664C371.566,348.874 371.544,349.178 371.36,349.37C371.189,349.549 370.898,349.568 370.71,349.73C370.534,349.882 370.461,350.129 370.294,350.291C370.122,350.459 369.867,350.529 369.706,350.707C369.532,350.9 369.594,351.379 368.548,351.639C367.925,351.793 367.275,351.828 366.655,351.996C365.816,352.224 365.292,353.087 362.622,352.174C360.519,351.456 360.433,351.598 358.709,350.198C358.553,350.071 358.475,349.863 358.316,349.74C358.111,349.579 357.821,349.54 357.634,349.359C357.456,349.187 357.424,348.904 357.261,348.718C357.106,348.542 356.868,348.458 356.699,348.295C354.911,346.568 354.864,346.643 353.189,344.783C353.118,344.704 352.646,344.179 352.225,343.875C352.005,343.715 351.718,343.661 351.506,343.492C351.331,343.353 351.256,343.114 351.086,342.968C350.892,342.802 350.615,342.748 350.432,342.57C350.26,342.404 350.221,342.131 350.052,341.963C349.877,341.791 349.603,341.746 349.427,341.576C349.259,341.415 349.21,341.154 349.043,340.992C348.512,340.477 348.37,340.685 347.826,340.163C346.79,339.17 346.838,339.154 345.812,338.173C345.694,338.06 344.585,336.999 344.289,336.813C344.051,336.664 343.738,336.648 343.518,336.474C343.34,336.333 343.318,336.051 343.144,335.905C342.944,335.737 342.624,335.748 342.436,335.566C342.259,335.395 342.283,335.078 342.108,334.904C341.825,334.623 341.193,334.817 340.431,333.572C340.308,333.37 340.249,333.12 340.08,332.954C339.901,332.777 339.604,332.755 339.423,332.579C339.25,332.41 339.225,332.126 339.054,331.955C338.74,331.641 338.21,331.763 337.418,330.585C336.776,329.628 335.207,328.612 334.714,328.198C334.558,328.067 334.485,327.851 334.325,327.726C334.119,327.565 333.825,327.535 333.636,327.355C333.459,327.185 333.432,326.901 333.27,326.718C333.113,326.54 332.871,326.457 332.699,326.293C332.537,326.139 332.445,325.918 332.274,325.772C332.081,325.607 331.806,325.551 331.624,325.374C331.542,325.295 331.618,325.24 330.69,324.31C330.527,324.148 330.42,323.932 330.247,323.779C330.064,323.617 329.801,323.555 329.634,323.375C329.452,323.18 329.388,322.898 329.228,322.684C328.803,322.115 328.754,322.169 328.474,321.514C328.341,321.204 326.634,318.657 327.523,315.508C327.832,314.417 328.085,314.545 328.498,313.499C328.606,313.227 328.672,312.93 328.835,312.687C328.936,312.534 329.158,312.495 329.268,312.349C329.431,312.132 329.453,311.824 329.637,311.624C329.8,311.446 330.084,311.425 330.264,311.264C330.446,311.103 330.537,310.86 330.698,310.678C330.835,310.524 331.036,310.431 331.153,310.262C331.312,310.034 331.346,309.731 331.513,309.509C331.64,309.34 331.891,309.292 332.014,309.119C332.329,308.676 332.502,308.145 332.803,307.692C332.904,307.54 333.112,307.478 333.208,307.323C333.36,307.077 333.354,306.748 333.528,306.518C333.657,306.347 333.936,306.343 334.073,306.178C334.586,305.561 334.299,305.396 334.839,304.82C334.997,304.652 335.232,304.571 335.394,304.407C336.967,302.807 336.742,302.664 337.836,300.683C337.917,300.536 338.105,300.468 338.191,300.323C338.339,300.073 338.361,299.756 338.527,299.517C338.64,299.355 338.88,299.316 339.001,299.16C339.523,298.483 339.308,298.371 339.801,297.688C340.207,297.125 340.215,297.153 340.52,296.512C340.915,295.679 341.971,294.602 342.13,294.295C342.402,293.773 342.559,293.195 342.833,292.674C342.908,292.532 343.089,292.467 343.168,292.327C343.608,291.54 343.365,291.445 343.836,290.675C343.921,290.536 344.112,290.485 344.196,290.345C344.349,290.09 344.407,289.788 344.529,289.517C344.947,288.593 345.122,288.741 345.378,288.413C345.943,287.688 346.239,286.598 346.284,286.43C346.367,286.127 346.398,285.799 346.559,285.53C346.655,285.371 346.938,285.378 347.016,285.208C347.075,285.079 346.833,284.929 346.893,284.801C346.942,284.694 347.07,284.792 347.795,283.647C348.622,282.341 348.18,282.17 348.563,281.533C348.66,281.372 348.945,281.379 349.022,281.208C349.081,281.079 348.835,280.931 348.894,280.802C348.957,280.663 349.252,280.918 350.091,279.313C350.912,277.743 351.27,275.779 351.328,275.46C351.385,275.145 351.393,274.803 351.553,274.525C351.643,274.37 351.949,274.424 352.023,274.26C352.09,274.112 351.825,273.94 351.887,273.789C351.932,273.681 352.077,273.791 352.791,272.642C353.634,271.285 353.104,271.077 353.84,269.659C354.157,269.047 354.209,269.099 354.455,268.479C355.071,266.93 355.051,266.935 355.312,265.463C355.338,265.315 355.527,264.248 355.844,263.662C355.913,263.534 356.093,263.487 356.156,263.355C357.148,261.276 357.199,259.362 357.832,257.629C359.3,253.609 358.91,253.502 360.233,249.428C361.601,245.217 360.938,244.652 361.515,242.505C362.616,238.408 361.856,238.286 362.537,235.511C363.025,233.519 363.12,233.546 363.201,231.487C363.299,229.009 363.279,229.012 363.812,226.59C364.436,223.759 364.444,202.979 363.803,200.414C362.58,195.516 363.572,195.372 363.03,193.596C362.835,192.958 362.361,192.985 362.312,190.509C362.24,186.862 361.997,186.906 361.538,185.488C360.964,183.716 361.661,180.997 360.131,177.648C359.974,177.305 359.8,177.408 359.539,176.486C359.291,175.605 359.114,172.92 359.023,172.637C358.969,172.471 358.617,171.386 358.192,170.628C357.956,170.208 357.771,170.322 357.534,169.487C357.495,169.352 357.138,165.608 356.126,163.655C355.934,163.284 355.789,163.361 355.526,162.49C355.372,161.977 355.078,159.56 354.351,158.594C354.101,158.262 353.741,158.445 353.308,156.553C353.239,156.248 353.251,155.922 353.135,155.633C353.084,155.506 352.896,155.48 352.829,155.361C352.372,154.544 352.658,154.437 352.2,153.634C352.123,153.498 351.917,153.471 351.839,153.336C351.622,152.964 351.345,151.7 351.313,151.554C351.247,151.254 351.244,150.935 351.131,150.65C351.079,150.521 350.901,150.479 350.837,150.356C350.409,149.545 350.281,147.81 349.363,146.593C349.129,146.283 348.818,146.465 348.271,144.574C348.223,144.407 347.903,143.3 347.364,142.594C347.084,142.228 346.798,142.385 346.269,140.577C345.82,139.044 345.606,139.167 344.892,138.2C344.733,137.985 344.631,137.732 344.517,137.49C344.442,137.33 343.91,136.198 343.396,135.577C343.143,135.271 342.938,135.437 342.53,134.482C342.414,134.209 342.374,133.901 342.221,133.646C342.135,133.503 341.913,133.473 341.835,133.325C341.559,132.8 341.447,132.201 341.182,131.671C341.109,131.524 340.912,131.467 340.835,131.322C340.609,130.899 340.827,130.79 339.791,129.32C339.631,129.092 339.533,128.822 339.359,128.605C339.023,128.185 338.909,128.286 338.518,127.489C337.637,125.692 337.436,125.847 336.845,125.191C336.677,125.004 336.597,124.747 336.424,124.566C336.047,124.174 335.899,124.303 335.535,123.478C335.418,123.213 335.363,122.917 335.211,122.671C335.115,122.517 334.916,122.452 334.809,122.307C334.643,122.083 334.58,121.792 334.403,121.577C334.011,121.1 333.878,121.214 333.524,120.484C332.623,118.623 332.334,118.763 331.883,118.19C331.193,117.312 331.425,117.172 330.678,116.339C330.518,116.16 330.402,115.941 330.225,115.778C330.05,115.617 329.795,115.553 329.635,115.377C329.562,115.296 329.587,115.279 328.801,114.294C328.633,114.084 328.55,113.812 328.374,113.608C328.225,113.436 327.997,113.349 327.841,113.183C327.673,113.003 327.586,112.756 327.413,112.582C327.246,112.415 327.001,112.34 326.836,112.172C326.667,111.999 326.596,111.744 326.424,111.573C326.255,111.405 325.999,111.344 325.833,111.174C325.663,111 325.603,110.737 325.434,110.562C324.957,110.067 324.854,110.171 324.524,109.484C323.763,107.899 321.776,105.932 314.812,99.176C314.695,99.061 313.598,97.997 313.291,97.806C313.053,97.657 312.737,97.649 312.516,97.476C312.341,97.337 312.327,97.055 312.155,96.911C311.952,96.74 311.63,96.749 311.436,96.568C311.26,96.403 311.274,96.095 311.102,95.925C310.922,95.747 310.613,95.748 310.43,95.574C310.259,95.412 310.251,95.125 310.084,94.961C309.903,94.782 309.607,94.757 309.422,94.582C309.252,94.422 309.22,94.151 309.054,93.988C308.511,93.456 308.365,93.673 307.815,93.16C306.567,91.994 306.581,91.987 306.304,91.773C306.094,91.612 305.817,91.545 305.621,91.367C305.085,90.879 305.191,90.805 304.655,90.326C303.902,89.654 303.829,89.787 301.686,88.212C301.12,87.796 301.08,87.901 300.515,87.478C300.347,87.352 300.296,87.112 300.134,86.979C299.528,86.479 299.408,86.675 298.808,86.151C297.564,85.066 297.595,85.042 297.276,84.873C296.761,84.601 296.191,84.443 295.681,84.163C295.535,84.083 295.476,83.888 295.331,83.806C295.075,83.66 294.744,83.664 294.504,83.493C294.342,83.378 294.349,83.101 294.185,82.99C293.474,82.508 293.269,82.943 292.619,82.364C292.444,82.208 292.431,81.925 292.274,81.75C292.106,81.563 291.857,81.467 291.664,81.305C290.525,80.346 289.896,80.289 289.676,80.171C289.533,80.093 289.459,79.918 289.314,79.845C288.786,79.578 288.2,79.437 287.678,79.161C287.534,79.085 287.484,78.887 287.344,78.803C287.089,78.651 286.788,78.592 286.518,78.47C285.265,77.902 285.508,77.554 284.304,76.875C283.519,76.433 283.447,76.619 282.675,76.166C282.428,76.021 280.764,75.044 279.492,74.516C279.218,74.403 278.933,74.309 278.676,74.16C278.539,74.08 278.467,73.91 278.325,73.839C277.792,73.572 277.205,73.423 276.671,73.157C276.412,73.028 275.2,72.114 273.443,71.684C273.137,71.609 272.804,71.594 272.53,71.437C272.379,71.35 272.405,71.069 272.246,70.997C272.104,70.933 271.935,71.165 271.792,71.104C271.229,70.862 271.545,70.303 269.427,69.736C266.822,69.039 267.061,68.403 264.44,67.787C263.487,67.563 263.468,67.739 262.515,67.463C262.226,67.38 261.926,67.308 261.668,67.155C261.533,67.075 261.511,66.865 261.375,66.787C261.181,66.676 256.692,65.177 256.657,65.159C255.087,64.362 255.168,64.165 253.436,63.875C252.786,63.766 252.121,63.774 251.469,63.682C249.594,63.419 248.954,62.225 245.47,61.839C242.829,61.546 242.845,61.533 239.496,60.511C235.433,59.27 234.383,60.195 231.511,59.464C223.911,57.53 222.119,59.828 216.599,58.178C215.901,57.969 215.298,57.789 207.502,57.854C207.268,57.856 204.948,57.876 204.581,57.985C204.199,58.099 203.874,58.361 203.497,58.491C201.71,59.103 193.967,58.226 190.403,59.188C186.034,60.367 185.828,59.178 181.508,60.523C179.809,61.053 179.792,60.934 179.646,60.982C179.249,61.112 178.887,61.338 178.49,61.471C177.359,61.849 174.3,61.621 171.663,62.907C170.401,63.522 170.408,63.557 168.554,63.82C167.001,64.04 167.096,64.343 165.568,64.74C164.017,65.145 164.104,65.371 162.56,65.736C159.759,66.399 160.007,67.004 158.483,67.457C157.037,67.887 155.934,67.627 154.587,68.639C154.428,68.759 154.39,69.02 154.207,69.098C154.064,69.16 153.892,68.935 153.75,68.999C153.593,69.071 153.618,69.348 153.468,69.434C153.195,69.591 152.862,69.612 152.555,69.686C152.312,69.745 151.37,69.972 149.642,70.818C149.504,70.885 149.465,71.081 149.333,71.158C148.533,71.624 148.422,71.318 147.628,71.768C147.487,71.848 147.465,72.067 147.325,72.15C147.006,72.34 145.708,72.673 145.565,72.71C143.231,73.309 143.413,73.712 141.515,74.529C139.425,75.429 139.634,75.774 139.192,76.097C138.864,76.337 137.708,76.679 137.575,76.718C135.999,77.184 136.129,77.42 135.199,78.108C133.969,79.018 133.752,78.645 132.578,79.607C132.225,79.896 132.363,80.073 131.48,80.466C129.54,81.331 129.775,81.654 129.196,82.12C128.989,82.286 128.724,82.365 128.48,82.468C128.212,82.583 127.909,82.621 127.661,82.774C127.506,82.87 127.455,83.084 127.309,83.193C127.084,83.36 126.784,83.41 126.569,83.59C126.23,83.872 126.392,84.082 125.479,84.466C125.209,84.579 124.906,84.618 124.654,84.768C124.506,84.856 124.466,85.076 124.315,85.16C123.91,85.384 123.795,85.138 122.314,86.205C120.64,87.412 120.662,87.423 120.505,87.508C118.607,88.535 118.9,88.877 118.37,89.356C118.173,89.535 117.886,89.588 117.676,89.751C117.522,89.871 117.447,90.073 117.294,90.193C117.079,90.362 116.798,90.433 116.588,90.607C116.067,91.039 116.167,91.138 115.492,91.488C113.625,92.459 113.772,92.998 113.374,93.367C113.184,93.543 112.892,93.576 112.695,93.744C112.524,93.89 112.458,94.132 112.295,94.287C112.123,94.453 111.86,94.513 111.705,94.694C111.543,94.883 111.553,95.191 111.373,95.364C111.182,95.549 110.863,95.545 110.653,95.708C110.493,95.832 110.451,96.071 110.295,96.2C110.086,96.373 109.788,96.417 109.583,96.594C109.407,96.746 109.349,97.002 109.181,97.162C109.003,97.332 108.74,97.396 108.562,97.567C108.399,97.724 108.348,97.979 108.176,98.126C107.562,98.646 107.414,98.354 106.753,98.83C106.668,98.891 106.201,99.228 105.82,99.755C105.662,99.973 105.651,100.279 105.478,100.484C105.327,100.662 105.038,100.682 104.886,100.86C104.392,101.441 104.72,101.634 104.179,102.177C104.008,102.349 103.735,102.393 103.563,102.564C103.392,102.735 103.349,103.007 103.179,103.179C103.008,103.349 102.736,103.394 102.566,103.565C102.394,103.737 102.349,104.009 102.177,104.181C102.008,104.352 101.739,104.398 101.569,104.569C101.399,104.74 101.351,105.01 101.18,105.181C101.009,105.352 100.741,105.399 100.57,105.569C100.399,105.74 100.35,106.009 100.179,106.18C100.009,106.35 99.741,106.4 99.571,106.57C99.4,106.742 99.349,107.01 99.178,107.181C99.008,107.351 98.743,107.401 98.572,107.569C98.324,107.814 98.504,107.998 97.572,108.569C96.942,108.955 96.963,108.963 96.576,109.574C96.007,110.474 95.758,110.395 95.578,110.574C95.457,110.695 95.552,110.755 94.163,112.168C93.651,112.69 93.646,112.657 93.161,113.193C92.293,114.151 92.248,114.102 91.851,114.73C91.701,114.967 91.65,115.263 91.482,115.488C91.357,115.655 91.113,115.708 90.992,115.879C90.677,116.323 90.499,116.852 90.195,117.303C90.091,117.458 89.879,117.52 89.782,117.679C89.631,117.923 89.643,118.252 89.47,118.481C89.34,118.651 89.054,118.646 88.919,118.813C88.745,119.027 88.767,119.361 88.586,119.569C88.441,119.735 88.134,119.699 87.996,119.872C87.473,120.524 87.946,120.758 87.365,121.377C87.199,121.554 86.902,121.555 86.72,121.715C86.087,122.267 85.558,123.333 85.481,123.488C85.068,124.319 83.989,125.443 83.834,125.695C83.682,125.941 83.604,126.226 83.477,126.486C83.087,127.287 82.047,128.348 81.837,128.689C81.685,128.937 81.603,129.222 81.474,129.484C81.074,130.299 80.041,131.369 79.871,131.696C79.599,132.219 79.438,132.797 79.16,133.318C79.083,133.463 78.901,133.533 78.817,133.675C78.669,133.928 78.6,134.22 78.476,134.485C78.099,135.292 77.077,136.372 76.938,136.704C76.822,136.98 76.79,137.286 76.707,137.574C76.621,137.873 76.593,138.199 76.431,138.464C76.334,138.623 76.046,138.61 75.97,138.78C75.91,138.913 76.162,139.064 76.102,139.197C76.017,139.386 75.74,139.415 75.609,139.577C75.046,140.272 74.595,141.349 74.526,141.513C73.986,142.804 71.859,146.304 70.721,149.566C70.255,150.9 70.297,150.915 70.097,151.204C69.64,151.866 69.415,151.737 68.794,153.582C67.783,156.588 67.322,156.423 66.696,159.543C66.601,160.015 66.212,161.254 66.157,161.359C66.095,161.479 65.907,161.506 65.858,161.631C65.801,161.772 65.962,161.803 65.464,163.486C65.344,163.894 64.178,165.998 63.814,167.563C63.74,167.882 63.745,168.214 63.688,168.536C63.51,169.542 61.905,174.116 61.834,174.556C61.729,175.206 61.756,175.872 61.675,176.527C61.502,177.937 59.954,181.095 59.824,183.528C59.692,186.002 59.895,186.022 59.173,188.39C59.16,188.432 57.983,193.111 57.895,194.523C57.547,200.125 58.343,200.187 57.196,205.416C56.84,207.037 56.659,219.422 57.193,221.585C58.713,227.743 56.79,229.272 58.477,235.507C58.786,236.65 58.894,238.172 58.961,238.384C59.085,238.777 59.338,239.12 59.469,239.51C60.272,241.908 59.175,242.105 60.479,246.507C60.982,248.208 60.873,248.23 60.925,248.374C61.068,248.769 61.332,249.113 61.473,249.509C61.665,250.05 61.858,253.029 61.964,253.358C61.979,253.403 62.433,254.206 62.734,255.44C63.112,256.988 63.416,256.887 63.681,258.467C63.944,260.035 63.896,260.042 64.519,261.492C64.641,261.777 64.682,262.097 64.831,262.369C64.885,262.467 65.357,262.553 65.67,264.466C65.723,264.787 65.733,265.114 65.783,265.436C65.991,266.771 66.409,266.969 66.778,268.427C67.386,270.83 67.693,270.785 68.159,271.667C68.673,272.641 68.73,274.231 69.632,275.412C69.867,275.719 70.219,275.527 70.707,277.439C71.284,279.702 71.689,279.863 72.162,280.673C72.622,281.462 72.399,281.544 72.838,282.343C72.912,282.477 73.085,282.537 73.161,282.67C73.619,283.463 73.382,283.543 73.826,284.338C73.903,284.476 74.081,284.537 74.162,284.673C74.622,285.453 74.393,285.541 74.833,286.335C74.909,286.473 75.081,286.538 75.161,286.674C75.62,287.458 75.408,287.539 75.846,288.329C75.921,288.466 76.093,288.533 76.164,288.672C76.464,289.258 76.277,289.351 77.199,290.681C77.359,290.913 77.446,291.193 77.624,291.411C77.892,291.742 78.063,291.598 78.468,292.519C78.586,292.789 78.637,293.09 78.787,293.343C78.873,293.487 79.08,293.534 79.159,293.682C79.592,294.492 79.416,294.57 80.194,295.684C80.355,295.914 80.432,296.2 80.61,296.418C80.932,296.813 81.086,296.684 81.47,297.518C82.377,299.482 82.682,299.265 83.114,299.809C83.279,300.016 83.361,300.277 83.472,300.517C84.381,302.488 84.682,302.261 85.114,302.81C86.047,303.996 85.628,304.25 86.616,305.407C86.763,305.578 87.002,305.649 87.156,305.814C87.326,305.997 87.4,306.256 87.574,306.435C87.954,306.827 88.103,306.694 88.475,307.516C89.307,309.353 89.604,309.22 90.159,309.816C90.328,309.997 90.404,310.253 90.576,310.432C91.016,310.891 91.131,310.79 91.473,311.518C92.614,313.952 93.598,313.859 94.499,315.5C95.568,317.448 96.076,317.148 96.491,317.512C96.671,317.669 96.696,317.96 96.877,318.115C97.069,318.28 97.345,318.311 97.567,318.434C98.477,318.935 98.647,320.2 99.648,321.369C100.282,322.111 104.734,326.4 105.182,326.832C105.301,326.947 106.409,328.014 106.696,328.237C106.902,328.398 107.183,328.455 107.373,328.635C107.551,328.804 107.604,329.072 107.767,329.255C107.839,329.335 108.323,329.875 108.748,330.176C108.969,330.333 109.276,330.348 109.486,330.519C109.66,330.661 109.685,330.935 109.856,331.08C110.057,331.25 110.368,331.254 110.563,331.432C110.735,331.59 110.725,331.898 110.909,332.042C111.323,332.369 111.868,332.494 112.299,332.799C112.462,332.915 112.499,333.16 112.657,333.282C112.869,333.445 113.185,333.447 113.378,333.631C113.557,333.803 113.551,334.107 113.713,334.294C113.871,334.477 114.13,334.545 114.309,334.707C114.466,334.85 114.539,335.078 114.713,335.199C114.941,335.358 115.262,335.355 115.483,335.525C115.655,335.657 115.676,335.928 115.843,336.067C116.05,336.239 116.364,336.249 116.566,336.427C116.735,336.577 116.748,336.855 116.912,337.011C117.464,337.541 117.615,337.313 118.186,337.842C119.218,338.798 119.169,338.834 119.706,339.167C119.948,339.318 120.256,339.352 120.486,339.522C120.653,339.646 120.7,339.891 120.861,340.023C121.471,340.523 121.595,340.317 122.193,340.845C123.414,341.925 123.384,341.954 123.722,342.132C124.237,342.403 124.811,342.552 125.32,342.834C125.469,342.916 125.52,343.121 125.666,343.208C125.917,343.358 126.248,343.354 126.483,343.527C126.652,343.652 126.657,343.926 126.819,344.059C127.438,344.568 127.59,344.311 128.196,344.847C129.261,345.79 129.219,345.853 130.571,346.336C131.757,346.76 132.157,347.76 132.741,348.039C133.571,348.437 133.688,348.079 134.471,348.555C134.632,348.653 134.632,348.934 134.804,349.014C134.928,349.071 135.073,348.832 135.196,348.891C135.301,348.941 135.21,349.039 136.318,349.805C137.257,350.454 137.341,350.255 138.325,350.837C138.463,350.918 138.527,351.098 138.669,351.169C139.203,351.436 139.796,351.57 140.328,351.839C140.468,351.91 140.52,352.098 140.658,352.175C141.445,352.613 141.54,352.368 142.325,352.837C142.463,352.92 142.519,353.107 142.659,353.185C143.445,353.627 143.54,353.376 144.332,353.84C144.463,353.916 144.516,354.094 144.649,354.169C145.438,354.612 145.532,354.376 146.322,354.843C146.46,354.924 146.523,355.104 146.663,355.182C147.458,355.623 147.539,355.399 148.335,355.84C148.464,355.911 148.527,356.074 148.659,356.138C149.698,356.64 153.329,357.843 153.333,357.845C153.465,357.918 153.509,358.107 153.645,358.173C154.514,358.595 157.178,359.431 157.489,359.529C157.959,359.676 160.011,360.84 161.559,361.197C161.879,361.271 162.213,361.258 162.536,361.314C162.684,361.34 163.753,361.525 164.337,361.845C164.466,361.915 164.509,362.099 164.641,362.162C166.44,363.017 169.269,363.444 169.494,363.516C171.012,363.997 170.983,364.042 172.496,364.51C173.995,364.974 173.962,365.071 175.527,365.208C178.57,365.476 180.537,366.899 183.526,367.122C184.189,367.171 184.855,367.171 185.519,367.21C187.661,367.335 189.042,368.355 194.505,368.319C197.487,368.3 197.532,367.943 200.398,368.823C203.348,369.729 204.869,368.527 208.372,369.819C208.776,369.969 209.174,370.135 209.581,370.277C209.874,370.379 210.21,370.383 210.472,370.551C210.649,370.665 210.661,370.943 210.825,371.075C211.038,371.247 211.327,371.297 211.565,371.433C212.509,371.971 212.576,372.894 212.825,373.316C213.024,373.654 213.188,373.555 213.487,374.505C213.991,376.104 213.858,376.958 213.966,397.495Z" style="fill:rgb(255,187,0);stroke:rgb(255,187,0);stroke-opacity:1;stroke-width:1px;"/>
            </g>
            <g id="Ellipse-16.png" serif:id="Ellipse 16.png" transform="matrix(1,0,0,1,403,805)">
                <path d="M4.053,77.532C3.977,76.528 3.222,64.087 3.204,63.513C2.858,52.325 1.526,47.685 7.572,44.652C9.015,43.929 23.151,42.157 25.52,41.585C33.548,39.649 39.25,38.49 50.426,34.298C78.341,23.829 95.745,8.053 99.682,4.717C107.133,-1.597 112.571,5.533 114.516,7.484C120.493,13.477 120.406,13.557 120.927,14.077C121.261,14.412 121.681,14.654 122.015,14.989C123.114,16.09 122.997,16.179 125.384,18.612C140.16,33.675 140.518,33.449 141.417,35.537C144.15,41.886 139.138,45.247 135.429,48.415C131.491,51.777 131.517,51.802 131.158,52.075C130.611,52.49 127.249,55.041 124.37,57.332C121.761,59.408 116.277,63.101 115.56,63.584C105.25,70.528 105.007,70.106 102.631,71.708C100.526,73.128 89.536,78.69 88.385,79.273C73.976,86.566 55.427,92.359 46.515,94.558C30.001,98.632 15.306,100.084 13.481,100.134C8.408,100.272 5.146,96.932 4.917,92.475C4.211,78.709 4.108,78.728 4.053,77.532Z" style="stroke:black;stroke-width:1px;"/>
            </g>
        </g>
    </g>
</svg>
