<?xml version="1.0" encoding="UTF-8" standalone="no"?>
<!DOCTYPE svg PUBLIC "-//W3C//DTD SVG 1.1//EN" "http://www.w3.org/Graphics/SVG/1.1/DTD/svg11.dtd">
<svg width="100%" height="100%" viewBox="0 0 128 128" version="1.1" xmlns="http://www.w3.org/2000/svg" xmlns:xlink="http://www.w3.org/1999/xlink" xml:space="preserve" xmlns:serif="http://www.serif.com/" style="fill-rule:evenodd;clip-rule:evenodd;stroke-linejoin:round;stroke-miterlimit:2;">
    <g transform="matrix(1,0,0,1,-32.336976,-152.515699)">
        <g id="Vector-2.png" transform="matrix(0.534431,0,0,0.534431,31.320809,151.400167)">
            <path d="M34.498,3.033C49.393,3.397 62.156,7.285 83.315,17.871C90.264,21.347 105.461,30.747 108.253,32.83C114.004,37.122 108.688,45.096 102.297,40.815C68.719,18.324 34.723,6.294 20.557,16.582C3.873,28.699 18.367,61.307 22.787,71.377C27.47,82.047 39.188,100.945 44.225,107.697C46.233,110.389 46.907,112.183 48.609,111.777C49.442,111.579 55.127,103.415 66.368,91.378C68.182,89.435 81.622,75.043 89.755,67.789C95.646,62.534 95.642,62.562 96.152,62.106C143.887,19.504 189.162,-0.753 215.433,3.873C217.179,4.181 228.122,6.108 234.162,15.718C254.471,48.038 205.772,113.693 204.04,116.174C201.873,119.278 199.701,120.386 201.831,123.258C203.126,125.003 210.929,135.523 217.018,145.781C237.28,179.913 238.481,197.446 238.91,203.478C241.628,241.75 207.235,250.301 157.385,223.708C154.015,221.91 135,211.766 117.319,197.738C106.041,188.79 106.132,188.701 105.147,187.929C96.296,180.992 77.847,163.108 74.479,159.52C61.686,145.895 55.163,138.537 50.058,131.858C47.777,128.873 46.712,131.122 45.614,132.582C39.937,140.125 20.725,169.08 14.889,192.59C0.804,249.337 60.755,224.454 69.357,220.193C80.049,214.897 83.918,213.5 100.621,202.694C107.506,198.24 111.145,205.939 108.242,209.291C107.621,210.008 90.016,222.777 66.397,232.245C21.752,250.141 -7.339,233.531 6.242,186.417C8.127,179.878 12.502,169.168 13.822,166.659C17.567,159.543 24.244,144.384 40.13,123.23C42.259,120.394 40.414,120.07 31.809,107.293C16.72,84.887 10.362,67.957 8.993,64.313C-6.589,22.822 9.422,2.514 34.498,3.033ZM207.499,12.963C211.247,13.156 216.584,13.07 222.558,17.427C226.105,20.014 229.965,27.075 229.014,38.461C226.516,68.354 198.511,106.677 197.356,108.404C195.302,111.475 194.415,113.417 191.835,110.227C173.183,87.17 157.82,72.684 141.165,57.872C135.025,52.412 128.278,59.805 134.134,64.927C157.265,85.159 171.238,101.34 174.192,104.761C187.727,120.436 187.187,120.931 187.121,121.438C186.893,123.175 163.011,152.128 136.28,175.24C132.713,178.324 129.642,180.432 131.588,184.452C133.015,187.402 138.425,186.363 138.425,186.363C138.425,186.363 166.676,162.405 189.199,135.258C190.807,133.32 190.695,133.252 192.371,131.371C194.519,128.959 195.591,131.703 196.781,133.293C199.514,136.947 215.055,159.447 222.979,180.325C249.642,250.568 185.461,235.542 131.284,195.806C114.594,183.565 86.333,161.166 55.896,123.179C54.027,120.846 55.247,119.97 58.219,116.281C76.488,93.606 93.955,77.701 94.842,76.857C102.634,69.437 111.895,61.675 113.417,60.399C131.016,45.648 155.669,28.788 176.465,20.416C193.312,13.633 200.578,13.254 207.499,12.963Z" style="fill-opacity:1;stroke:black;stroke-width:1.87px;"/>
        </g>
    </g>
</svg>
