<?xml version="1.0" encoding="UTF-8" standalone="no"?>
<!DOCTYPE svg PUBLIC "-//W3C//DTD SVG 1.1//EN" "http://www.w3.org/Graphics/SVG/1.1/DTD/svg11.dtd">
<svg width="100%" height="100%" viewBox="0 0 77 75" version="1.1" xmlns="http://www.w3.org/2000/svg" xmlns:xlink="http://www.w3.org/1999/xlink" xml:space="preserve" xmlns:serif="http://www.serif.com/" style="fill-rule:evenodd;clip-rule:evenodd;stroke-linejoin:round;stroke-miterlimit:2;">
    <g transform="matrix(1,0,0,1,-633.536077,-376.811984)">
        <g>
            <g transform="matrix(1,0,0,1,320,315)">
                <path d="M366.503,85.887C367.622,85.886 378.193,85.873 380.498,85.883C381.766,85.888 385.658,85.718 386.365,89.525C386.753,91.608 386.47,125.622 386.528,130.499C386.559,133.101 387.681,132.82 388.629,133.136C388.824,133.201 390.622,133.798 390.044,135.279C389.607,136.401 387.519,136.255 381.501,136.284C380.155,136.291 380.164,136.257 355.5,136.285C352.303,136.289 316.664,136.331 315.532,136.232C313.21,136.031 312.597,133.711 315.414,133.135C317.021,132.807 317.538,133.205 317.91,131.6C317.996,131.226 317.959,131.219 317.965,104.499C317.969,87.927 317.937,87.938 317.961,86.498C318.122,77.068 317.879,77.077 317.958,72.499C318.085,65.165 317.509,61.975 324.504,61.892C338.67,61.723 353.936,61.87 356.495,61.895C363.106,61.959 362.245,66.428 362.259,72.499C362.285,84.133 361.876,85.349 363.393,85.796C363.393,85.796 366.254,85.88 366.503,85.887Z" style="fill:rgb(12,12,12);"/>
            </g>
            <g transform="matrix(1,0,0,1,320,315)">
                <path d="M333.904,121.51C333.88,131.932 333.931,132.004 333.495,132.496C332.964,133.095 332.855,133.218 323.506,133.087C320.336,133.042 321.128,131.671 321.125,128.503C321.121,123.702 321.081,71.677 321.124,68.498C321.178,64.594 322.592,65.06 326.498,64.996C328.577,64.961 328.564,65.141 352.496,65.063C355.305,65.054 358.313,64.64 358.902,66.314C359.132,66.966 359.105,66.992 359.156,109.501C359.158,111.257 359.182,131.061 359.118,131.456C358.827,133.251 358.301,133.024 356.499,133.072C348.372,133.287 348.074,132.953 347.597,132.421C346.36,131.039 348.708,119.476 345.678,118.172C344.163,117.521 336.328,117.52 335.336,118.203C333.843,119.232 334.1,120.333 333.904,121.51Z" style="fill:rgb(250,250,250);"/>
            </g>
            <g transform="matrix(1,0,0,1,320,315)">
                <path d="M368.495,89.036C370.355,88.977 370.343,88.969 370.504,88.972C381.149,89.205 381.248,88.733 382.557,89.418C383.394,89.855 383.42,91.28 383.395,96.5C383.303,116.306 383.632,131.383 383.157,132.291C382.582,133.39 378.538,133.079 378.506,133.079C363.713,132.993 362.693,133.599 362.305,131.541C362.214,131.057 362.181,91.009 362.302,90.45C362.735,88.463 366.033,89 368.495,89.036Z" style="fill:rgb(249,249,249);"/>
            </g>
            <g transform="matrix(1,0,0,1,320,315)">
                <path d="M353.956,76.511C353.854,79.155 354.154,79.211 353.508,80.505C353.219,81.085 352.798,81.929 345.496,81.679C341.737,81.55 342.211,79.458 342.193,74.51C342.179,70.795 342.796,70.24 346.503,70.241C351.854,70.243 353.744,69.935 353.939,73.473C353.977,74.156 353.961,74.15 353.956,76.511Z" style="fill:rgb(6,5,5);"/>
            </g>
            <g transform="matrix(1,0,0,1,320,315)">
                <path d="M353.933,89.495C353.97,93.811 354.545,96.554 351.551,96.903C350.567,97.018 344.679,97.187 343.414,96.658C342.805,96.404 341.671,95.929 342.259,88.491C342.518,85.223 344.394,85.739 349.502,85.723C350.312,85.72 352.084,85.689 352.719,86.113C354.175,87.086 353.844,88.312 353.933,89.495Z" style="fill:rgb(9,9,9);"/>
            </g>
            <g transform="matrix(1,0,0,1,320,315)">
                <path d="M353.948,108.505C353.794,110.526 354.28,112.102 350.495,112.244C343.071,112.521 343.001,111.798 342.696,111.361C342.013,110.382 341.861,102.959 342.868,101.841C343.279,101.385 343.762,100.85 350.508,101.124C354.653,101.293 353.926,103.439 353.948,108.505Z" style="fill:rgb(8,8,8);"/>
            </g>
            <g transform="matrix(1,0,0,1,320,315)">
                <path d="M334.5,70.274C334.837,70.328 335.186,70.271 335.523,70.325C337.505,70.644 337.681,72.078 337.723,73.499C337.936,80.647 337.507,81.277 335.512,81.59C334.817,81.7 329.215,81.741 328.483,81.62C325.819,81.18 326.241,78.402 326.246,74.504C326.252,69.555 328.251,70.277 334.5,70.274Z" style="fill:rgb(6,5,5);"/>
            </g>
            <g transform="matrix(1,0,0,1,320,315)">
                <path d="M334.494,85.765C336.089,85.929 336.153,85.749 336.714,86.181C337.793,87.014 337.806,87.96 337.727,93.497C337.679,96.831 336.822,96.907 333.495,97.023C326.988,97.25 326.497,96.414 326.282,94.515C326.279,94.492 326.12,88.652 326.449,87.485C326.857,86.035 328.337,85.848 328.55,85.822C329.484,85.704 334.018,85.759 334.494,85.765Z" style="fill:rgb(11,11,11);"/>
            </g>
            <g transform="matrix(1,0,0,1,320,315)">
                <path d="M334.504,101.122C336.192,101.363 337.608,100.701 337.716,104.502C337.883,110.386 337.555,110.874 337.25,111.328C336.902,111.846 336.443,112.529 329.504,112.245C326.024,112.103 326.15,110.871 326.275,104.501C326.28,104.241 326.324,102.01 327.492,101.485C328.755,100.917 332.68,101.11 334.504,101.122Z" style="fill:rgb(8,8,8);"/>
            </g>
            <g transform="matrix(1,0,0,1,320,315)">
                <path d="M374.5,128.067C371.362,128.075 369.137,128.116 368.399,127.956C366.905,127.63 366.676,126.881 366.559,125.498C366.066,119.676 367.064,118.86 367.501,118.502C368.013,118.083 377.182,117.616 378.199,118.762C378.95,119.609 379.554,126.83 377.614,127.703C376.615,128.153 374.814,128.062 374.5,128.067Z" style="fill:rgb(4,4,4);"/>
            </g>
            <g transform="matrix(1,0,0,1,320,315)">
                <path d="M378.806,112.512C378.724,112.849 378.775,113.209 378.693,113.546C378.3,115.155 377.742,115.554 369.502,115.343C366.67,115.271 366.522,114.488 366.5,110.5C366.477,106.327 366.89,105.637 369.499,105.477C370.183,105.435 376.888,105.025 378.053,105.982C379.13,106.868 378.817,111.35 378.806,112.512Z" style="fill:rgb(6,6,6);"/>
            </g>
            <g transform="matrix(1,0,0,1,320,315)">
                <path d="M370.494,93.051C371.06,93.031 376.35,92.852 377.566,93.377C379.661,94.283 378.659,101.244 378.558,101.523C377.962,103.169 375.173,102.87 371.495,102.842C367.858,102.814 366.655,103.133 366.489,99.5C366.243,94.095 367.038,93.684 367.472,93.458C368.386,92.985 370.401,93.054 370.494,93.051Z" style="fill:rgb(6,5,5);"/>
            </g>
            <g transform="matrix(1,0,0,1,320,315)">
                <path d="M340.496,120.941C341.138,121.041 341.803,120.87 342.445,120.97C344.21,121.243 344.047,121.724 344.12,123.511C344.175,124.864 344.121,129.934 344.115,130.492C344.091,132.719 343.705,132.987 341.49,133.068C340.956,133.088 338.61,133.07 338.563,133.058C336.86,132.613 337.116,131.947 336.988,126.504C336.885,122.141 337.217,121.787 337.493,121.493C337.784,121.182 338.281,121.091 338.356,121.077C339.43,120.88 339.437,121.136 340.496,120.941Z" style="fill:rgb(249,249,249);"/>
            </g>
            <g transform="matrix(1,0,0,1,320,315)">
                <path d="M350.763,75.482C350.628,77.102 351.348,78.703 347.499,78.525C346.357,78.472 345.033,78.457 345.202,75.478C345.291,73.917 345.717,73.196 348.51,73.359C351.096,73.511 350.556,74.867 350.763,75.482Z" style="fill:rgb(249,249,249);"/>
            </g>
            <g transform="matrix(1,0,0,1,320,315)">
                <path d="M350.756,106.493C350.705,106.837 350.779,107.192 350.728,107.536C350.462,109.329 348.899,109.286 347.509,109.245C343.736,109.134 345.597,104.768 345.682,104.682C345.844,104.519 346.284,104.075 348.521,104.208C351.162,104.365 350.562,105.783 350.756,106.493Z" style="fill:rgb(249,249,249);"/>
            </g>
            <g transform="matrix(1,0,0,1,320,315)">
                <path d="M347.517,88.94C348.851,89.048 350.818,88.432 350.794,91.505C350.779,93.458 350.158,93.833 348.529,93.918C345.992,94.051 345.226,94.053 345.203,91.505C345.175,88.484 346.972,89.115 347.517,88.94Z" style="fill:rgb(251,251,251);"/>
            </g>
            <g transform="matrix(1,0,0,1,320,315)">
                <path d="M329.399,75.492C329.577,74.91 329.134,73.577 331.49,73.387C334.44,73.15 334.589,74.365 334.658,75.489C334.836,78.377 333.576,78.48 332.504,78.552C328.805,78.798 329.494,76.749 329.399,75.492Z" style="fill:rgb(248,248,248);"/>
            </g>
            <g transform="matrix(1,0,0,1,320,315)">
                <path d="M329.396,106.497C329.551,105.847 329.049,104.373 331.474,104.202C331.697,104.186 333.592,104.052 334.214,104.758C334.26,104.81 336.082,109.056 332.482,109.24C328.871,109.424 329.549,107.663 329.396,106.497Z" style="fill:rgb(248,248,248);"/>
            </g>
            <g transform="matrix(1,0,0,1,320,315)">
                <path d="M332.476,88.92C332.962,89.104 334.71,88.522 334.659,91.505C334.639,92.644 334.659,94.179 331.458,93.934C329.776,93.805 329.411,93.223 329.394,91.501C329.364,88.366 331.311,89.05 332.476,88.92Z" style="fill:rgb(250,250,250);"/>
            </g>
            <g transform="matrix(1,0,0,1,320,315)">
                <path d="M372.498,112.354C372.473,112.353 369.525,112.783 369.492,110.5C369.465,108.683 371.275,108.524 371.5,108.505C375.167,108.184 375.504,109.126 375.618,109.445C375.701,109.674 376.478,111.843 374.434,112.256C374.282,112.286 374.291,112.263 372.498,112.354Z" style="fill:rgb(248,248,248);"/>
            </g>
            <g transform="matrix(1,0,0,1,320,315)">
                <path d="M372.499,124.916C370.536,124.761 370.539,124.809 370.38,124.749C369.353,124.361 369.356,122.385 369.803,121.76C370.501,120.784 374.392,121.132 374.608,121.192C376.112,121.612 375.771,123.349 375.731,123.555C375.398,125.252 372.71,124.905 372.499,124.916Z" style="fill:rgb(245,246,246);"/>
            </g>
            <g transform="matrix(1,0,0,1,320,315)">
                <path d="M372.491,96.118C374.444,96.188 374.436,96.15 374.599,96.193C376.161,96.61 375.773,98.359 375.728,98.564C375.462,99.76 373.733,99.852 373.529,99.863C370.689,100.014 369.723,99.58 369.535,98.492C369.131,96.147 370.121,96.322 372.491,96.118Z" style="fill:rgb(248,248,248);"/>
            </g>
        </g>
    </g>
</svg>
