<?xml version="1.0" encoding="UTF-8" standalone="no"?>
<!DOCTYPE svg PUBLIC "-//W3C//DTD SVG 1.1//EN" "http://www.w3.org/Graphics/SVG/1.1/DTD/svg11.dtd">
<svg width="100%" height="100%" viewBox="0 0 94 88" version="1.1" xmlns="http://www.w3.org/2000/svg" xmlns:xlink="http://www.w3.org/1999/xlink" xml:space="preserve" xmlns:serif="http://www.serif.com/" style="fill-rule:evenodd;clip-rule:evenodd;stroke-linejoin:round;stroke-miterlimit:2;">
    <g transform="matrix(1,0,0,1,-912.874926,-466.895413)">
        <g id="ChatGPT-Image-Jul-10--2026-at-04_16_33-PM.png" serif:id="ChatGPT Image Jul 10, 2026 at 04_16_33 PM.png" transform="matrix(1,0,0,1,859,416)">
            <g>
                <path d="M85.88,135.415C86.106,135.463 86.269,135.686 86.495,135.734C86.717,135.781 88.453,136.15 89.008,134.42C89.171,133.915 88.976,133.896 88.981,110.5C88.985,97.645 88.718,96.75 90.645,95.986C91.208,95.762 97.332,95.848 97.477,95.859C99.48,96.013 99.937,97.178 100.088,97.607C100.34,98.325 100.098,130.108 100.19,133.516C100.287,137.115 103.098,135.305 103.146,135.244C103.7,134.538 103.521,133.946 103.538,113.5C103.54,110.197 103.011,108.002 106.51,107.921C113.103,107.769 114.084,108.132 114.536,109.487C115.012,110.918 114.635,126.727 114.749,133.491C114.768,134.656 114.539,134.827 115.473,135.54C115.775,135.771 117.149,135.712 117.447,135.443C118.157,134.803 118.043,134.084 118.04,124.5C118.038,119.068 117.367,117.252 121.495,117.177C127.073,117.074 128.584,117.053 129.051,119.55C129.166,120.165 128.965,133.943 129.139,134.611C129.495,135.974 131.216,135.787 131.532,135.545C132.664,134.676 132.105,134.373 132.266,128.493C132.372,124.614 135.234,125.167 139.503,125.2C144.437,125.239 143.285,127.813 143.426,133.503C143.501,136.51 145.454,135.551 146.436,135.828C147.737,136.196 148.058,136.303 147.764,137.617C147.493,138.827 144.921,138.275 134.5,138.345C118.656,138.451 95.697,138.336 95.5,138.336C88,138.336 86.186,138.712 85.666,137.418C85.55,137.13 85.635,136.785 85.519,136.497L85.88,135.415Z" style="fill:rgb(1,1,1);"/>
                <path d="M85.88,135.415L85.519,136.497C85.191,136.427 84.844,136.509 84.517,136.44C84.167,136.366 83.866,136.114 83.511,136.07C82.142,135.899 58.526,136.445 56.433,135.682C53.999,134.795 53.925,131.883 53.915,131.492C53.889,130.445 53.907,88.585 53.9,58.499C53.899,55.595 53.258,51.043 58.509,50.913C59.603,50.886 112.183,50.894 112.497,50.91C118.069,51.195 117.339,53.53 117.351,63.5C117.354,66.06 117.387,93.414 117.332,95.49C117.327,95.709 117.246,98.796 115.486,97.521C114.739,96.979 114.81,96.764 114.818,80.5C114.83,55.21 114.817,55.181 114.53,54.483C114.034,53.279 113.582,53.442 94.5,53.439C58.3,53.433 58.268,53.437 57.63,53.731C56.301,54.343 56.528,54.815 56.524,73.5C56.512,125.959 56.439,125.94 56.54,130.499C56.617,133.971 58.124,133.406 65.5,133.414C84.231,133.432 84.689,133.082 85.483,134.509C85.644,134.797 85.72,135.127 85.88,135.415Z" style="fill:rgb(15,15,15);"/>
                <path d="M140.371,119.065C137.802,119.751 134.453,120.809 134.187,119.682C133.846,118.235 134.264,118.203 135.635,117.608C136.492,117.236 136.301,116.705 136.269,116.616C136.124,116.212 129.004,113.577 117.392,105.653C100.064,93.827 90.068,81.257 89.653,80.428C89.107,79.335 90.015,77.094 92.374,79.617C92.467,79.716 94.425,82.14 98.088,85.901C104.219,92.195 108.593,95.64 109.571,96.411C111.898,98.244 113.669,99.879 121.681,105.217C125.854,107.997 130.312,110.387 135.591,113.269C136.94,114.005 137.731,114.036 137.547,112.504C137.389,111.183 137.096,111.074 137.606,110.614C138.759,109.574 139.912,111.614 140.018,111.801C142.603,116.373 142.499,116.993 142.418,117.479C142.212,118.712 141.747,118.355 140.371,119.065Z" style="fill:rgb(5,4,4);"/>
                <path d="M73.499,103.864C78.399,103.756 80.415,103.645 80.68,104.376C81.536,106.736 79.98,106.202 77.496,106.486C76.167,106.638 75.219,108.89 78.562,109.096C78.723,109.106 80.301,109.204 80.539,109.463C81.474,110.485 80.511,111.271 80.393,111.368C79.215,112.331 77.994,110.604 76.268,113.365C74.022,116.957 73.162,116.172 71.682,116.865C70.155,117.581 71.118,118.546 71.222,118.65C76.412,123.847 76.373,123.878 76.828,124.325C77.528,125.013 77.694,125.231 76.964,125.888C75.223,127.453 72.254,124.361 71.958,124.053C71.45,123.524 66.114,117.967 65.663,117.378C64.583,115.969 65.322,114.837 66.542,114.755C69.609,114.55 69.663,114.834 71.3,114.137C74.088,112.95 72.435,111.9 72.264,111.791C71.758,111.471 66.285,111.967 65.565,111.416C65.44,111.32 64.401,110.525 65.448,109.448C66.03,108.85 71.157,109.339 71.906,108.946C73.979,107.859 71.476,106.913 71.313,106.852C69.729,106.254 65.33,106.844 65.104,105.648C64.801,104.039 66.369,103.843 66.554,103.82C66.978,103.766 68.119,103.755 73.499,103.864Z" style="fill:rgb(3,3,3);"/>
                <path d="M79.49,72.231C78.999,72.14 76.787,72.47 75.072,69.792C72.354,65.547 74.97,59.762 80.469,60.697C85.77,61.599 85.873,70.773 80.422,72.133C80.119,72.209 79.793,72.156 79.49,72.231Z" style="fill:rgb(15,15,14);"/>
                <path d="M81.5,85.139C83.693,85.14 87.487,84.766 87.47,86.499C87.454,88.154 84.203,87.872 80.499,87.866C63.064,87.841 62.976,87.931 62.483,87.523C61.228,86.487 62.341,85.562 62.468,85.456C62.924,85.078 62.997,85.14 81.5,85.139Z"/>
                <path d="M106.033,68.502C105.934,69.141 106.127,69.803 106.028,70.441C105.996,70.644 105.588,73.276 103.631,71.353C103.428,71.153 103.277,71.005 101.675,68.377C101.247,67.676 101.182,67.748 100.682,67.087C100.179,66.421 100.159,65.963 99.476,66.473C99.097,66.757 99.91,71.665 98.643,71.869C96.896,72.151 97.25,71.273 97.145,69.505C96.917,65.69 97.135,61.934 97.51,61.508C98.229,60.692 99.441,61.296 99.591,61.37C100.108,61.627 99.944,61.787 101.195,63.706C101.602,64.33 101.846,65.181 102.424,65.626C103.145,66.18 103.523,66.566 103.731,65.677C103.856,65.138 103.428,61.572 104.297,61.147C105.653,60.482 105.824,61.064 106.127,62.538C106.22,62.99 106.049,68.025 106.033,68.502Z" style="fill:rgb(14,13,13);"/>
                <path d="M71.5,78.11C85.307,78.12 86.223,77.858 86.218,79.5C86.213,81.114 85.324,80.828 71.501,80.839C64.92,80.844 62.514,81.011 61.998,80.165C60.801,78.199 64.225,78.128 64.482,78.122C64.848,78.115 70.939,78.11 71.5,78.11Z"/>
                <path d="M72.5,92.062C82.232,92.063 83.964,91.972 84.507,92.492C84.65,92.629 86.259,94.172 83.587,94.786C82.768,94.974 63.789,94.892 63.423,94.827C61.896,94.553 61.878,93.653 61.874,93.489C61.846,92.11 64.244,92.066 64.482,92.062C65.123,92.05 65.119,92.063 72.5,92.062Z" style="fill:rgb(1,1,1);"/>
                <path d="M92.393,62.543C93.822,65.895 93.751,65.91 94.854,69.384C95.48,71.354 95.204,72.676 93.443,71.58C92.84,71.204 93.311,69.663 90.503,69.679C88.767,69.688 88.842,70.029 88.039,71.135C86.671,73.019 85.936,71.455 85.862,71.296C85.657,70.86 85.867,70.841 87.493,65.498C88.864,60.996 90.079,60.952 90.517,60.936C91.881,60.886 91.652,61.4 92.393,62.543Z" style="fill:rgb(7,6,6);"/>
                <path d="M68.511,72.154C67.627,71.867 66.219,72.446 65.931,69.495C65.856,68.725 65.874,62.64 65.894,62.543C66.191,61.075 66.365,60.514 67.705,61.162C68.587,61.589 68.266,65.491 68.313,67.509C68.39,70.792 70.456,69.474 71.451,69.808C73.302,70.431 73.326,71.649 71.444,72.166C71.265,72.215 68.746,72.159 68.511,72.154Z" style="fill:rgb(18,18,18);"/>
                <path d="M80.467,69.436C80.162,69.565 78.805,69.702 78.465,69.597C75.329,68.629 76.249,61.543 80.569,63.387C82.342,64.144 82.563,68.548 80.467,69.436Z" style="fill:rgb(253,253,253);"/>
                <path d="M91.358,67.39C89.837,67.345 89.82,67.432 89.726,67.341C89.271,66.906 89.986,64.919 90.502,64.906C90.696,64.901 91.584,65.918 91.595,66.509C91.6,66.813 91.353,67.086 91.358,67.39Z" style="fill:rgb(240,240,240);"/>
            </g>
        </g>
    </g>
</svg>
