<?xml version="1.0" encoding="UTF-8" standalone="no"?>
<!DOCTYPE svg PUBLIC "-//W3C//DTD SVG 1.1//EN" "http://www.w3.org/Graphics/SVG/1.1/DTD/svg11.dtd">
<svg width="100%" height="100%" viewBox="0 0 77 76" version="1.1" xmlns="http://www.w3.org/2000/svg" xmlns:xlink="http://www.w3.org/1999/xlink" xml:space="preserve" xmlns:serif="http://www.serif.com/" style="fill-rule:evenodd;clip-rule:evenodd;stroke-linejoin:round;stroke-miterlimit:2;">
    <g transform="matrix(1,0,0,1,-357.267576,-517.385394)">
        <g>
            <g transform="matrix(1,0,0,1,320,315)">
                <path d="M45.523,254.015C43.856,253.679 43.816,253.837 42.601,253.268C42.447,253.195 41.329,252.672 40.761,252.185C37.511,249.399 37.281,246.594 37.28,243.502C37.28,237.99 36.585,231.57 45.471,229.386C48.526,228.636 47.313,226.979 48.33,223.448C50.234,216.832 53.531,213.009 54.192,212.243C66.087,198.456 82.372,203.146 82.569,203.185C86.514,203.967 91.956,207.259 94.422,209.582C104.888,219.444 102.23,228.276 104.662,229.133C105.529,229.438 113.704,230.171 113.85,239.495C113.922,244.125 114.733,251.659 106.596,253.839C104.644,254.361 104.371,254.437 104.122,256.454C103.524,261.306 101.203,265.118 101.12,265.241C94.834,274.515 86.26,273.475 84.505,273.573C82.09,273.707 81.839,275.432 80.433,276.409C77.274,278.601 71.802,277.2 71.645,277.133C65.524,274.509 67.486,266.279 73.532,265.881C79.136,265.512 80.553,266.673 82.143,268.756C82.808,269.629 82.697,270.592 87.494,270.335C94.927,269.937 98.669,263.672 99.496,261.498C101.8,255.436 100.693,253.284 100.51,252.498C99.672,248.896 100.902,232.455 99.871,225.439C99.194,220.828 96.367,215.783 92.139,211.896C91.251,211.079 88.275,208.969 88.237,208.95C76.709,202.903 68.557,206.326 64.393,208.268C60.271,210.191 55.188,214.641 52.772,220.607C50.449,226.342 50.695,226.935 50.751,243.498C50.77,249.314 51.374,253.425 46.465,254.006C46.153,254.042 45.834,253.978 45.523,254.015Z" style="fill:rgb(7,7,7);"/>
            </g>
            <g transform="matrix(1,0,0,1,320,315)">
                <path d="M70.367,251.771C70.209,251.682 68.398,250.656 68.398,250.656C65.004,248.522 62.779,243.751 62.93,240.499C63.451,229.267 74.376,225.974 80.383,228.76C90.734,233.561 89.606,246.262 82.57,250.611C76.867,254.136 73.702,253.018 70.367,251.771Z" style="fill:rgb(8,7,7);"/>
            </g>
            <g transform="matrix(1,0,0,1,320,315)">
                <path d="M66.11,240.507C66.368,238.617 66.343,238.624 66.388,238.466C67.822,233.392 71.217,232.148 71.277,232.111C71.775,231.811 74.639,230.081 78.515,231.459C85.903,234.086 87.946,245.331 78.368,249.173C73.81,251.001 68.869,248.051 67.274,244.605C66.006,241.867 66.144,240.714 66.11,240.507Z" style="fill:rgb(252,252,252);"/>
            </g>
            <g transform="matrix(1,0,0,1,320,315)">
                <path d="M41.446,235.465C42.804,233.862 42.64,233.587 44.613,232.901C46.523,232.237 47.263,233.367 47.387,233.557C47.776,234.15 47.642,248.902 47.488,249.496C47.035,251.246 44.659,250.756 43.656,250.188C40.108,248.18 40.413,244.418 40.415,243.499C40.423,239.393 39.914,239.276 41.446,235.465Z" style="fill:rgb(250,250,250);"/>
            </g>
            <g transform="matrix(1,0,0,1,320,315)">
                <path d="M108.698,234.31C109.663,235.636 110.845,236.062 110.557,244.502C110.357,250.365 104.212,252.281 103.737,249.446C103.71,249.284 103.532,234.493 103.832,233.634C104.68,231.212 108.387,234.07 108.698,234.31Z" style="fill:rgb(250,250,250);"/>
            </g>
            <g transform="matrix(1,0,0,1,320,315)">
                <path d="M75.497,269.064C75.841,269.089 76.187,269.057 76.53,269.083C80.604,269.389 80.862,273.984 76.487,274.345C69.436,274.928 70.844,270.364 72.521,269.537C73.895,268.861 73.955,269.157 75.497,269.064Z" style="fill:rgb(250,249,250);"/>
            </g>
        </g>
    </g>
</svg>
