<?xml version="1.0" encoding="UTF-8" standalone="no"?>
<!DOCTYPE svg PUBLIC "-//W3C//DTD SVG 1.1//EN" "http://www.w3.org/Graphics/SVG/1.1/DTD/svg11.dtd">
<svg width="100%" height="100%" viewBox="0 0 76 71" version="1.1" xmlns="http://www.w3.org/2000/svg" xmlns:xlink="http://www.w3.org/1999/xlink" xml:space="preserve" xmlns:serif="http://www.serif.com/" style="fill-rule:evenodd;clip-rule:evenodd;stroke-linejoin:round;stroke-miterlimit:2;">
    <g transform="matrix(1,0,0,1,-496.417162,-376.47834)">
        <g>
            <g transform="matrix(1,0,0,1,320,315)">
                <path d="M200.053,87.529C200.084,88.228 200.158,92.916 200.63,93.392C201.509,94.278 201.973,93.61 208.708,88.796C208.731,88.779 212.051,86.004 213.274,87.667C214.078,88.76 213.473,94.624 213.88,95.239C213.95,95.345 214.337,95.929 215.466,95.416C215.581,95.364 228.195,87.255 229.439,87.101C229.642,87.076 231.207,86.883 231.595,88.475C231.869,89.601 231.596,94.948 231.813,95.317C232.394,96.308 234.09,95.164 234.253,95.054C235.893,93.949 246.51,87.625 247.388,87.249C251.155,85.637 250.747,89.046 250.708,95.502C250.693,98.057 250.526,126.261 250.815,127.441C251.032,128.329 253.567,131.569 249.521,131.764C246.686,131.9 196.214,131.767 184.505,131.822C179.809,131.845 176.613,132.047 176.445,130.511C176.357,129.701 176.455,129.687 177.083,129.153C178.324,128.097 178.553,128.149 178.694,126.521C179.023,122.738 178.642,122.714 179.683,113.52C180.106,109.783 179.789,109.769 180.669,102.519C180.834,101.167 180.569,101.15 181.772,85.521C181.949,83.223 181.848,83.239 182.173,79.466C182.516,75.483 182.645,75.508 182.961,71.532C183.569,63.873 182.88,61.785 187.502,61.583C196.184,61.205 196.934,61.928 197.514,62.486C199.098,64.01 198.031,64.455 199.763,83.471C199.82,84.101 200.031,87.204 200.053,87.529Z" style="fill:rgb(8,7,7);"/>
            </g>
            <g transform="matrix(1,0,0,1,320,315)">
                <path d="M183.038,113.469C183.083,112.677 183.536,104.718 183.842,103.581C183.953,103.167 184.154,102.75 184.469,102.461C185.474,101.537 192.27,103.086 192.28,100.502C192.289,97.873 185.621,99.619 184.549,98.455C183.909,97.759 184.001,97.589 185.935,74.534C186.082,72.782 185.894,72.404 187.576,71.89C187.794,71.823 192.594,71.787 193.488,71.801C195.161,71.828 195.526,71.786 195.838,73.43C195.852,73.502 196.812,93.001 197.65,97.461C198.316,101.005 201.909,97.598 205.725,94.805C209.161,92.291 209.787,91.881 210.461,92.533C210.987,93.042 210.468,98.854 211.053,99.78C211.842,101.032 212.548,100.869 215.319,99.198C225.626,92.98 225.489,92.789 226.416,92.307C227.535,91.725 227.807,91.452 228.507,92.496C228.866,93.032 227.961,99.724 229.519,100.464C231.066,101.198 235.556,97.721 241.438,94.388C244.528,92.637 247.578,89.548 247.526,93.498C247.255,114.438 247.681,125.961 247.32,127.44C246.948,128.964 244.895,128.749 240.5,128.752C237.699,128.754 208.054,128.775 205.493,128.732C203.868,128.705 203.537,128.896 202.944,127.375C202.913,127.297 202.924,127.297 202.345,118.511C201.608,107.311 202.6,106.374 200.498,105.854C198.949,105.47 198.93,108.26 198.928,108.507C198.873,116.377 199.93,127.115 199.078,128.13C198.53,128.784 198.365,128.697 184.497,128.726C182.339,128.731 181.743,128.655 181.814,126.505C181.948,122.397 182.896,114.999 183.038,113.469Z" style="fill:rgb(251,251,251);"/>
            </g>
            <g transform="matrix(1,0,0,1,320,315)">
                <path d="M210.505,108.791C211.222,108.781 218.334,108.684 219.464,108.816C221.624,109.067 221.515,110.825 221.537,112.501C221.641,120.394 221.138,120.391 220.732,120.767C219.545,121.87 209.39,121.349 208.673,121.092C207.943,120.83 206.821,120.427 207.3,111.494C207.461,108.493 209.591,108.891 210.505,108.791Z" style="fill:rgb(6,6,6);"/>
            </g>
            <g transform="matrix(1,0,0,1,320,315)">
                <path d="M238.497,108.786C239.45,109.004 241.288,108.342 241.45,111.5C241.903,120.361 240.99,120.749 240.282,121.05C239.387,121.431 229.282,121.741 228.223,120.882C227.686,120.447 227.112,120.445 227.264,112.503C227.295,110.878 227.32,109.985 228.319,109.22C229.126,108.602 233.726,108.753 238.497,108.786Z" style="fill:rgb(8,7,7);"/>
            </g>
            <g transform="matrix(1,0,0,1,320,315)">
                <path d="M234.496,118.214C231.52,118.128 230.445,118.486 230.408,115.502C230.372,112.536 230.522,111.782 233.504,111.766C236.924,111.748 238.294,111.087 238.369,114.505C238.408,116.272 238.396,117.171 237.726,117.774C237.153,118.29 237.054,118.063 234.496,118.214Z" style="fill:rgb(250,250,250);"/>
            </g>
            <g transform="matrix(1,0,0,1,320,315)">
                <path d="M213.505,118.224C211.778,118.107 211.784,118.136 211.64,118.097C209.832,117.615 210.539,113.087 210.772,112.656C210.991,112.25 211.379,111.532 216.469,111.783C218.611,111.889 218.443,113.71 218.427,115.499C218.397,118.953 216.951,118.208 213.505,118.224Z" style="fill:rgb(249,249,249);"/>
            </g>
            <g transform="matrix(1,0,0,1,320,315)">
                <path d="M190.503,64.726C191.376,64.725 194.024,64.49 194.779,65.203C195.702,66.074 195.365,67.706 195.047,68.059C194.695,68.45 194.448,68.724 188.492,68.617C185.448,68.563 186.273,65.843 187.204,65.095C187.772,64.638 187.853,64.843 190.503,64.726Z" style="fill:rgb(247,247,247);"/>
            </g>
        </g>
    </g>
</svg>
