<?xml version="1.0" encoding="UTF-8" standalone="no"?>
<!DOCTYPE svg PUBLIC "-//W3C//DTD SVG 1.1//EN" "http://www.w3.org/Graphics/SVG/1.1/DTD/svg11.dtd">
<svg width="100%" height="100%" viewBox="0 0 72 78" version="1.1" xmlns="http://www.w3.org/2000/svg" xmlns:xlink="http://www.w3.org/1999/xlink" xml:space="preserve" xmlns:serif="http://www.serif.com/" style="fill-rule:evenodd;clip-rule:evenodd;stroke-linejoin:round;stroke-miterlimit:2;">
    <g transform="matrix(1,0,0,1,-757.129369,-515.777315)">
        <g>
            <g transform="matrix(1,0,0,1,320,315)">
                <path d="M481.375,239.192C485.424,237.87 491.422,236.253 499.514,241.48C500.576,242.167 505.535,245.669 507.626,253.469C509.142,259.129 506.85,264.598 506.477,265.489C501.084,278.354 488.143,279.191 481.447,276.627C467.111,271.137 464.115,252.641 475.105,243.033C477.902,240.588 478.002,240.738 481.375,239.192Z" style="fill:rgb(7,7,7);"/>
            </g>
            <g transform="matrix(1,0,0,1,320,315)">
                <path d="M504.889,258.517C503.314,273.804 487.936,278.825 478.109,270.98C477.715,270.666 475.155,268.622 473.916,266.279C468.784,256.58 473.045,245.871 482.413,242.264C492.628,238.331 501.276,244.854 503.785,252.405C505.116,256.411 504.842,256.65 504.889,258.517Z" style="fill:rgb(251,251,251);"/>
            </g>
            <g transform="matrix(1,0,0,1,320,315)">
                <path d="M455.078,207.504C455.096,215.729 455.956,219.313 448.5,219.383C443.52,219.429 441.039,219.009 440.554,220.523C440.393,221.028 440.372,221.025 440.383,260.5C440.384,264.955 439.94,267.699 444.496,267.773C449.216,267.85 466.444,267.648 467.352,267.935C467.679,268.038 470.43,270.831 465.513,270.909C465.051,270.917 444.169,270.919 443.487,270.892C443.207,270.88 439.56,271.079 437.841,267.339C436.817,265.108 437.223,264.553 437.149,233.502C437.113,217.991 437.128,217.904 437.866,216.743C438.425,215.863 451.235,202.084 452.465,201.444C454.189,200.549 454.383,200.88 477.502,200.812C484.659,200.791 488.141,200.226 490.277,204.6C491.155,206.398 490.73,206.5 490.845,229.494C490.846,229.669 491.408,234.906 488.384,233.674C487.425,233.283 487.673,231.784 487.681,209.499C487.681,209.032 487.976,206.031 486.309,204.738C484.657,203.457 481.413,204.277 464.498,203.944C456.195,203.781 455.995,203.975 455.476,204.479C455.239,204.709 455.113,205.328 455.097,205.406C455.063,205.571 455.095,205.561 455.078,207.504Z" style="fill:rgb(9,9,9);"/>
            </g>
            <g transform="matrix(1,0,0,1,320,315)">
                <path d="M483.507,262.494C482.697,261.487 482.697,261.497 482.632,261.406C481.298,259.526 482.392,258.723 482.573,258.59C482.864,258.376 486.904,258.054 487.45,257.452C488.48,256.315 487.487,255.79 487.365,255.725C487.104,255.587 482.952,255.771 482.529,255.461C481.185,254.477 482.302,253.529 482.426,253.423C482.83,253.081 487.138,253.173 487.297,253.099C488.167,252.692 488.232,251.679 487.639,251.38C486.172,250.642 483.626,250.838 483.405,250.82C483.246,250.807 481.522,250.666 481.875,249.536C482.443,247.716 484.004,248.313 491.503,248.168C496.337,248.074 494.687,250.263 494.484,250.487C494.109,250.904 494.008,250.692 492.609,250.855C492.448,250.874 490.631,251.086 491.456,252.53C491.648,252.866 491.746,252.75 493.677,253.186C496.189,253.751 494.493,255.216 494.356,255.334C494.302,255.381 494.313,255.366 492.669,255.872C490.733,256.47 491.753,258.297 488.294,260.17C487.364,260.673 486.901,260.383 486.893,261.454C486.888,262.1 491.031,266.302 491.182,266.655C491.899,268.33 490.717,268.599 490.555,268.636C488.961,269 487.754,267.404 483.507,262.494Z" style="fill:rgb(9,9,9);"/>
            </g>
            <g transform="matrix(1,0,0,1,320,315)">
                <path d="M476.501,229.196C477.171,229.217 477.843,229.185 478.513,229.206C478.729,229.213 480.574,229.27 480.975,230.315C481.753,232.341 478.761,232.458 478.499,232.468C475.177,232.598 454.58,232.523 452.5,232.515C446.914,232.495 449.373,229.874 449.62,229.664C450.394,229.004 451.621,229.254 473.498,229.195C473.498,229.195 476.261,229.196 476.501,229.196Z" style="fill:rgb(3,3,3);"/>
            </g>
            <g transform="matrix(1,0,0,1,320,315)">
                <path d="M453.501,239.082C469.605,239.084 470.435,238.848 470.592,240.484C470.746,242.084 468.695,242.231 468.476,242.246C468.428,242.25 451.741,242.388 450.57,242.203C450.39,242.175 448.842,241.93 448.997,240.559C449.11,239.556 450.252,239.251 450.402,239.211C450.642,239.147 450.631,239.202 453.501,239.082Z" style="fill:rgb(2,2,2);"/>
            </g>
            <g transform="matrix(1,0,0,1,320,315)">
                <path d="M453.501,252.693C450.664,252.615 450.563,252.943 449.632,252.308C449.368,252.128 447.06,249.605 452.5,249.52C464.017,249.339 464.181,249.494 464.905,250.174C465.525,250.756 465.414,252.274 463.521,252.607C462.893,252.717 462.17,252.717 453.501,252.693Z" style="fill:rgb(5,5,4);"/>
            </g>
            <g transform="matrix(1,0,0,1,320,315)">
                <path d="M451.872,212.5C451.864,212.666 451.775,214.572 451.775,214.572C451.309,216.419 449.018,216.097 445.518,216.223C444.263,216.269 443.677,216.729 443.63,215.467C443.589,214.357 444.021,214.516 447.209,211.219C450.444,207.874 450.35,207.128 451.409,207.657C452.108,208.006 451.91,210.61 451.872,212.5Z" style="fill:rgb(248,248,248);"/>
            </g>
        </g>
    </g>
</svg>
