<?xml version="1.0" encoding="UTF-8" standalone="no"?>
<!DOCTYPE svg PUBLIC "-//W3C//DTD SVG 1.1//EN" "http://www.w3.org/Graphics/SVG/1.1/DTD/svg11.dtd">
<svg width="100%" height="100%" viewBox="0 0 83 76" version="1.1" xmlns="http://www.w3.org/2000/svg" xmlns:xlink="http://www.w3.org/1999/xlink" xml:space="preserve" xmlns:serif="http://www.serif.com/" style="fill-rule:evenodd;clip-rule:evenodd;stroke-linejoin:round;stroke-miterlimit:2;">
    <g transform="matrix(1,0,0,1,-488.521944,-517.74433)">
        <g>
            <g transform="matrix(1,0,0,1,320,315)">
                <path d="M245.5,242.139C245.334,242.1 243.43,241.662 243.43,241.662C243.039,241.466 242.733,241.117 242.329,240.949C240.759,240.298 240.775,242.346 240.776,242.523C240.831,249.512 240.831,249.488 240.839,256.5C240.86,273.804 241.037,274.129 239.115,276.132C236.605,278.746 232.483,277.907 221.498,277.928C210.989,277.949 211.002,278.014 200.496,277.954C182.858,277.854 182.12,278.58 179.67,275.376C178.447,273.776 178.688,273.557 178.643,245.5C178.639,242.443 179.365,240.437 176.513,241.536C176.131,241.683 175.776,241.905 175.383,242.021C172.918,242.748 169.211,240.694 168.621,237.474C167.81,233.05 172.105,231.151 177.596,226.619C180.683,224.071 200.23,208.677 202.204,207.124C205.384,204.619 209.054,200.562 213.737,204.184C215.357,205.437 221.631,210.173 223.786,212.132C225.071,213.3 225.567,213.983 226.448,212.477C226.658,212.118 225.554,206.474 231.481,206.122C238.325,205.715 238.97,207.341 239.318,207.679C241.411,209.716 240.359,215.771 240.621,223.495C240.725,226.594 241.969,225.999 248.856,232.088C254.395,236.985 248.57,241.27 247.593,241.687C246.5,242.154 245.522,242.134 245.5,242.139Z" style="fill:rgb(8,7,7);"/>
            </g>
            <g transform="matrix(1,0,0,1,320,315)">
                <path d="M200.049,246.498C200.594,252.185 201.707,251.795 203.133,253.784C204.348,255.478 202.27,256.273 199.485,258.483C199.209,258.702 197.199,260.726 196.511,262.504C195.011,266.379 196.481,273.138 195.321,274.333C194.881,274.787 193.671,274.828 193.522,274.833C184.135,275.154 183.513,274.639 182.854,274.094C181.088,272.634 181.976,272.124 181.82,242.502C181.815,241.705 181.383,238.192 182.878,236.917C183.733,236.188 193.747,228.496 194.696,227.768C195.736,226.968 203.43,221.059 207.65,217.702C210.525,215.414 210.92,216.823 213.821,219.093C216.072,220.854 223.282,226.361 224.106,226.991C224.787,227.51 227.135,229.418 227.396,229.631C228.018,230.136 228.071,230.062 235.331,235.729C238.281,238.031 237.611,238.991 237.619,243.498C237.623,245.739 237.669,270.636 237.582,271.507C237.214,275.173 235.387,274.901 226.496,274.844C223.079,274.823 223.656,273.36 223.649,270.5C223.638,266.444 224.519,261.628 218.116,256.996C216.096,255.535 215.448,255.038 217.076,253.163C220.85,248.815 220.518,238.492 211.478,236.603C210.845,236.47 207.265,235.722 203.679,238.716C199.955,241.826 200.112,245.872 200.049,246.498Z" style="fill:rgb(252,252,252);"/>
            </g>
            <g transform="matrix(1,0,0,1,320,315)">
                <path d="M177.287,237.214C176.576,237.741 174.376,239.621 172.714,238.237C170.812,236.653 172.503,234.896 172.7,234.692C173.382,233.983 186.021,224.142 191.572,219.588C192.142,219.12 192.183,219.193 198.805,213.876C202.707,210.743 202.755,210.831 206.655,207.699C210.057,204.967 210.748,205.842 214.822,209.098C219.585,212.905 219.639,212.798 224.421,216.6C229.193,220.392 229.496,220.615 230.492,220.472C231.063,220.39 232.143,219.424 231.019,217.849C230.942,217.742 229.437,217.28 229.847,211.529C230.046,208.741 232.818,209.191 234.507,209.221C237.826,209.282 237.229,211.815 237.235,213.501C237.268,222.491 237.239,222.613 237.06,223.384C236.8,224.504 235.545,225.595 238.816,228.094C241.076,229.82 246.874,234.497 247.143,234.804C248.67,236.539 247.083,240.625 243.282,237.795C237.134,233.217 237.247,233.084 220.679,220.257C212.668,214.055 210.77,211.52 207.572,213.613C207.433,213.705 183.976,231.978 182.318,233.246C181.736,233.692 177.689,236.896 177.287,237.214Z" style="fill:rgb(250,250,250);"/>
            </g>
            <g transform="matrix(1,0,0,1,320,315)">
                <path d="M207.37,257.191C209.203,256.816 209.187,256.621 210.474,256.775C212.045,256.963 213.153,257.621 213.363,257.746C221.086,262.336 220.402,265.158 220.438,269.502C220.468,273.228 221.246,274.772 217.508,274.824C216.226,274.842 207.572,274.963 201.485,274.855C198.902,274.81 198.897,274.089 198.892,271.494C198.879,265.802 197.654,261.879 207.37,257.191Z" style="fill:rgb(251,251,251);"/>
            </g>
            <g transform="matrix(1,0,0,1,320,315)">
                <path d="M208.574,239.908C210.323,239.852 210.312,239.829 210.462,239.847C218.582,240.828 217.493,252.696 210.473,253.246C203.521,253.791 201.576,245.681 204.951,241.904C206.36,240.328 206.58,240.64 208.574,239.908Z" style="fill:rgb(251,251,251);"/>
            </g>
        </g>
    </g>
</svg>
