<?xml version="1.0" encoding="UTF-8" standalone="no"?>
<!DOCTYPE svg PUBLIC "-//W3C//DTD SVG 1.1//EN" "http://www.w3.org/Graphics/SVG/1.1/DTD/svg11.dtd">
<svg width="100%" height="100%" viewBox="0 0 82 68" version="1.1" xmlns="http://www.w3.org/2000/svg" xmlns:xlink="http://www.w3.org/1999/xlink" xml:space="preserve" xmlns:serif="http://www.serif.com/" style="fill-rule:evenodd;clip-rule:evenodd;stroke-linejoin:round;stroke-miterlimit:2;">
    <g transform="matrix(1,0,0,1,-754.778284,-387.03812)">
        <g>
            <g transform="matrix(1,0,0,1,320,315)">
                <path d="M507.041,121.494C507.034,121.254 506.986,119.512 506.984,118.497C506.944,101.794 507.193,101.689 506.799,101.256C505.88,100.246 505.672,100.734 504.431,101.343C502.148,102.464 502.124,102.397 501.717,102.756C500.59,103.751 500.922,104.568 500.872,116.502C500.862,118.903 502.099,124.885 492.421,129.316C478.432,135.722 466.98,132.094 466.401,131.98C461.26,130.969 453.019,127.938 450.859,122.373C449.371,118.54 450.61,105.688 450.035,103.661C449.649,102.303 449.151,102.672 437.684,97.119C437.3,96.932 434.204,95.433 434.873,92.582C435.498,89.917 438.167,89.082 438.27,89.031C438.943,88.698 445.153,85.624 446.694,84.901C447.31,84.612 453.369,81.768 454.388,81.275C468.456,74.468 468.484,74.531 469.701,73.926C476.376,70.603 477.699,72.327 481.687,74.089C482.311,74.364 485.445,75.749 489.423,77.665C508.708,86.953 508.717,86.905 510.376,87.745C513.587,89.37 516.528,90.302 516.348,93.489C516.101,97.848 510.421,96.496 510.221,100.479C510.197,100.953 510.201,124.373 510.209,124.515C510.384,127.561 511.974,127.006 513.58,132.477C514.695,136.276 513.166,139.347 509.536,139.809C500.285,140.987 502.131,131.645 505.546,127.537C507.257,125.478 507.011,125.283 507.041,121.494Z" style="fill:rgb(7,7,7);"/>
            </g>
            <g transform="matrix(1,0,0,1,320,315)">
                <path d="M499.435,100.441C497.737,101.374 496.274,101.751 495.351,102.171C490.238,104.499 487.161,106.044 486.433,106.348C481.377,108.458 477.385,111.343 474.45,110.718C472.385,110.278 442.49,95.772 439.515,94.473C439.34,94.397 437.112,93.425 439.136,92.111C439.171,92.088 447.038,88.299 447.725,87.967C449.078,87.316 463.75,80.248 464.653,79.839C472.151,76.441 473.518,75.261 475.5,75.264C478.036,75.269 489.252,81.472 496.425,84.672C496.715,84.802 512.52,92.315 512.601,92.419C513.63,93.733 511.707,94.485 511.529,94.555C511.245,94.666 510.951,94.75 510.67,94.866C505.338,97.086 505.077,97.338 488.533,94.333C481.077,92.979 474.183,89.46 473.684,92.549C473.332,94.725 476.467,94.464 479.515,95.458C484.281,97.013 485.534,96.93 492.53,98.359C497.745,99.423 498.206,98.137 498.839,99.135C499.096,99.539 499.179,100.037 499.435,100.441Z" style="fill:rgb(252,252,252);"/>
            </g>
            <g transform="matrix(1,0,0,1,320,315)">
                <path d="M475.499,129.897C474.77,129.875 468.553,129.784 463.354,127.874C452.566,123.91 453.371,120.133 453.363,116.5C453.342,106.844 453.284,105.99 453.631,105.609C454.447,104.713 456.467,106.114 457.477,106.553C460.871,108.029 460.755,108.25 463.546,109.389C468.623,111.462 472.37,114.275 476.539,113.827C479.73,113.485 492.43,106.88 495.523,105.554C496.553,105.112 496.688,104.715 497.506,105.495C497.809,105.784 497.8,107.329 497.799,107.49C497.741,117.327 497.851,118.456 497.702,119.527C496.929,125.082 487.442,129.523 475.499,129.897Z" style="fill:rgb(252,252,252);"/>
            </g>
            <g transform="matrix(1,0,0,1,320,315)">
                <path d="M506.736,131.625C507.681,129.891 508.135,129.046 509.464,130.53C509.931,131.051 510.508,133.238 510.572,133.482C511.659,137.603 506.347,136.968 505.944,135.342C505.711,134.402 506.631,131.91 506.736,131.625Z" style="fill:rgb(247,247,247);"/>
            </g>
        </g>
    </g>
</svg>
