<?xml version="1.0" encoding="UTF-8" standalone="no"?>
<!DOCTYPE svg PUBLIC "-//W3C//DTD SVG 1.1//EN" "http://www.w3.org/Graphics/SVG/1.1/DTD/svg11.dtd">
<svg width="100%" height="100%" viewBox="0 0 78 73" version="1.1" xmlns="http://www.w3.org/2000/svg" xmlns:xlink="http://www.w3.org/1999/xlink" xml:space="preserve" xmlns:serif="http://www.serif.com/" style="fill-rule:evenodd;clip-rule:evenodd;stroke-linejoin:round;stroke-miterlimit:2;">
    <g transform="matrix(1,0,0,1,-360.570627,-382.529588)">
        <g>
            <g transform="matrix(1,0,0,1,320,315)">
                <path d="M65.526,108.086C69.118,108.496 69.167,108.427 77.297,111.963C78.793,112.614 80.411,113.99 83.52,114.178C88.635,114.486 91.418,113.99 94.136,116.848C95.279,118.051 95.363,118.826 97.623,117.764C106.533,113.579 109.906,110.371 114.628,112.181C116.95,113.071 121.371,118.505 114.265,123.147C102.718,130.689 92.641,136.742 90.737,137.885C84.863,141.413 77.975,139.065 68.602,136.156C67.783,135.901 67.828,135.789 58.407,132.81C57.147,132.411 56.912,132.205 56.168,133.285C55.526,134.216 56.073,136.055 52.489,136.253C52.417,136.257 43.525,136.416 42.639,136.064C40.035,135.027 40.648,133.814 40.605,112.5C40.596,107.915 39.968,104.804 44.504,104.619C52.528,104.291 53.572,104.678 54.308,104.95C56.443,105.74 55.467,109.213 57.51,109.255C59.93,109.304 59.796,108.223 65.526,108.086Z" style="fill:rgb(8,7,7);"/>
            </g>
            <g transform="matrix(1,0,0,1,320,315)">
                <path d="M108.081,88.477C107.712,91.744 107.947,94.632 103.509,100.507C102.847,101.382 98.962,105.688 93.598,106.927C90.706,107.595 79.646,110.268 71.247,98.677C69.834,96.727 66.651,89.806 68.409,83.473C72.913,67.246 87.745,66.313 93.58,68.271C108.459,73.266 108.076,85.921 108.081,88.477Z" style="fill:rgb(7,7,7);"/>
            </g>
            <g transform="matrix(1,0,0,1,320,315)">
                <path d="M91.589,71.117C93.651,71.729 96.648,72.069 100.659,76.351C106.795,82.902 107.649,97.178 94.424,103.342C92.46,104.257 86.419,105.479 81.629,103.236C73.991,99.66 72.443,94.455 71.474,90.506C70.181,85.237 72.855,72.741 86.544,70.819C88.171,70.59 91.189,71.056 91.589,71.117Z" style="fill:rgb(251,251,251);"/>
            </g>
            <g transform="matrix(1,0,0,1,320,315)">
                <path d="M56.095,124.497C56.109,118.995 56.082,119.005 56.096,115.496C56.106,113.161 56.172,112.726 58.448,112.267C62.148,111.521 66.116,110.383 71.374,112.78C76.235,114.997 76.253,114.949 76.662,115.169C81.732,117.89 83.414,117.125 88.493,117.58C88.863,117.613 92.671,117.954 92.137,120.468C91.641,122.803 88.9,122.5 87.5,122.502C81.498,122.51 81.5,122.866 75.547,122.145C72.179,121.737 72.489,123.962 73.303,124.698C74.781,126.033 79.907,125.815 80.502,125.813C90.453,125.778 92.12,126.21 94.455,123.464C96.088,121.543 96.431,122.024 98.677,120.845C99.007,120.671 108.505,115.873 108.654,115.791C114.048,112.822 116.708,117.447 113.171,120.059C112.563,120.507 91.311,133.9 89.274,135.117C84.686,137.859 78.382,135.836 77.483,135.547C72.51,133.952 72.449,134.199 67.539,132.397C64.997,131.463 64.935,131.705 62.384,130.84C57.983,129.347 57.968,129.399 57.597,129.238C56.505,128.763 56.384,128.753 56.156,127.579C56.156,127.579 56.1,124.743 56.095,124.497Z" style="fill:rgb(251,251,251);"/>
            </g>
            <g transform="matrix(1,0,0,1,320,315)">
                <path d="M47.507,133.116C46.854,133.035 46.187,133.181 45.534,133.101C44.239,132.942 43.985,132.398 43.923,132.266C43.739,131.871 43.737,129.723 43.736,129.501C43.722,113.313 43.616,109.33 43.882,108.68C44.265,107.743 45.458,107.704 50.492,107.757C50.671,107.759 52.281,107.777 52.62,108.413C52.962,109.055 53.126,109.363 53.006,117.505C52.801,131.577 53.305,131.777 52.542,132.536C51.736,133.338 48.488,133.119 47.507,133.116Z" style="fill:rgb(250,250,250);"/>
            </g>
            <g transform="matrix(1,0,0,1,320,315)">
                <path d="M88.504,77.97C92.383,78.055 92.435,77.737 93.673,78.242C94.419,78.546 94.534,79.745 94.131,80.22C93.918,80.471 92.687,80.655 92.557,80.674C92.431,80.693 91.197,80.877 91.126,81.382C90.905,82.953 91.652,82.637 93.209,82.981C94.696,83.31 94.549,84.62 94.075,85.059C93.811,85.304 93.776,85.233 92.559,85.638C91.191,86.093 91.031,86.784 90.574,87.552C89.19,89.877 87.118,89.884 86.79,90.639C86.217,91.956 87.03,91.853 90.341,95.632C90.493,95.806 92.501,98.097 90.504,98.511C88.809,98.863 87.228,96.728 83.055,91.913C82.856,91.683 80.276,88.705 83.4,88.131C84.127,87.998 84.871,87.979 85.599,87.848C85.92,87.79 86.233,87.685 86.537,87.565C86.7,87.501 88.612,86.747 87.437,85.569C87.168,85.299 83.592,85.379 83.528,85.373C83.344,85.356 81.44,85.184 81.956,83.695C82.277,82.769 86.572,82.933 86.711,82.907C87.817,82.705 88.097,82.458 87.575,81.448C87.193,80.709 82.711,80.695 82.484,80.518C82.351,80.414 81.195,79.509 82.424,78.409C83.104,77.801 86.888,77.966 88.504,77.97Z" style="fill:rgb(8,8,8);"/>
            </g>
        </g>
    </g>
</svg>
