<?xml version="1.0" encoding="UTF-8" standalone="no"?>
<!DOCTYPE svg PUBLIC "-//W3C//DTD SVG 1.1//EN" "http://www.w3.org/Graphics/SVG/1.1/DTD/svg11.dtd">
<svg width="100%" height="100%" viewBox="0 0 81 82" version="1.1" xmlns="http://www.w3.org/2000/svg" xmlns:xlink="http://www.w3.org/1999/xlink" xml:space="preserve" xmlns:serif="http://www.serif.com/" style="fill-rule:evenodd;clip-rule:evenodd;stroke-linejoin:round;stroke-miterlimit:2;">
    <g transform="matrix(1,0,0,1,-625.967841,-515.823841)">
        <g>
            <g transform="matrix(1,0,0,1,320,315)">
                <path d="M305.968,222.51C306.043,221.865 306.57,217.321 307.691,214.572C313.405,200.565 332.235,195.808 343.818,207.175C352.816,216.005 352.284,230.405 343.678,238.69C330.683,251.2 311.255,243.385 307.2,229.594C306.18,226.123 306.255,226.115 305.968,222.51Z" style="fill:rgb(7,7,7);"/>
            </g>
            <g transform="matrix(1,0,0,1,320,315)">
                <path d="M365.508,239.07C387.372,240.457 394.416,266.029 377.366,278.308C371.725,282.371 364.097,282.726 360.447,281.678C343.026,276.678 340.694,259.737 346.726,249.627C351.715,241.265 359.659,239.693 362.457,239.253C363.867,239.031 363.852,239.124 365.508,239.07Z" style="fill:rgb(7,7,7);"/>
            </g>
            <g transform="matrix(1,0,0,1,320,315)">
                <path d="M326.453,204.087C327.977,204.034 336.773,203.126 343.353,211.613C347.68,217.195 347.739,224.528 346.325,228.435C342.335,239.459 333.701,240.921 331.485,241.435C325.465,242.832 316.828,239.745 312.653,233.405C305.841,223.059 311.218,213.655 313.768,210.747C318.82,204.985 325.239,204.304 326.453,204.087Z" style="fill:rgb(251,250,251);"/>
            </g>
            <g transform="matrix(1,0,0,1,320,315)">
                <path d="M365.514,278.948C361.892,278.844 361.884,278.779 358.481,277.549C352.99,275.564 347.5,269.682 347.047,262.535C346.992,261.668 346.148,256.189 350.156,250.285C358.442,238.08 376.609,240.592 381.949,253.313C384.022,258.254 384.564,262.476 381.689,268.59C378.341,275.707 371.748,277.647 370.635,277.974C368.121,278.714 368.14,278.76 365.514,278.948Z" style="fill:rgb(251,251,251);"/>
            </g>
            <g transform="matrix(1,0,0,1,320,315)">
                <path d="M333.482,265.933C333.638,265.938 335.427,265.997 335.427,265.997C337.636,266.545 337.614,268.932 335.446,269.22C333.257,269.512 328.438,268.731 325.609,267.281C324.752,266.842 319.178,263.986 317.302,258.584C316.75,256.996 317.132,256.147 315.48,256.436C314.757,256.562 314.042,258.973 312.444,258.869C310.129,258.719 311.794,255.959 311.925,255.741C312.444,254.882 315.6,250.033 315.81,249.842C316.952,248.801 317.634,249.144 323.364,252.731C323.616,252.889 326.402,254.633 325.037,256.051C324.224,256.896 322.842,256.131 322.676,256.04C322.288,255.825 321.946,255.535 321.568,255.303C318.001,253.122 320.171,257.398 320.267,257.586C324.619,266.16 333.348,265.922 333.482,265.933Z" style="fill:rgb(8,8,8);"/>
            </g>
            <g transform="matrix(1,0,0,1,320,315)">
                <path d="M360.445,265.552C360.264,265.337 358.68,263.456 358.689,262.507C358.712,260.331 362.595,261.253 364.204,260.151C367.163,258.123 362.742,258.136 362.532,258.137C361.871,258.139 361.209,258.163 360.548,258.148C360.347,258.144 358.309,258.097 358.623,256.534C358.932,254.991 364.075,255.87 364.503,255.504C364.616,255.407 365.574,254.589 364.38,253.642C363.894,253.257 360.875,253.123 360.568,253.109C358.01,252.995 357.936,250.739 360.49,250.431C360.574,250.421 370.335,250.428 370.509,250.459C372.631,250.831 372.155,252.785 371.148,253.007C370.55,253.138 369.92,253.066 369.321,253.193C368.115,253.448 368.259,255.054 369.558,255.398C371.111,255.81 371.506,255.313 372.065,256.572C372.539,257.639 370.583,258.166 370.403,258.215C368.658,258.686 368.841,258.997 368.048,260.2C365.865,263.509 364.353,262.581 363.853,263.665C363.403,264.638 364.177,265.051 367.863,269.213C368.019,269.389 370.235,271.89 367.478,272.126C366.036,272.249 363.172,268.62 360.445,265.552Z" style="fill:rgb(8,8,8);"/>
            </g>
            <g transform="matrix(1,0,0,1,283,277)">
                <path d="M360.445,265.552C360.264,265.337 358.68,263.456 358.689,262.507C358.712,260.331 362.595,261.253 364.204,260.151C367.163,258.123 362.742,258.136 362.532,258.137C361.871,258.139 361.209,258.163 360.548,258.148C360.347,258.144 358.309,258.097 358.623,256.534C358.932,254.991 364.075,255.87 364.503,255.504C364.616,255.407 365.574,254.589 364.38,253.642C363.894,253.257 360.875,253.123 360.568,253.109C358.01,252.995 357.936,250.739 360.49,250.431C360.574,250.421 370.335,250.428 370.509,250.459C372.631,250.831 372.155,252.785 371.148,253.007C370.55,253.138 369.92,253.066 369.321,253.193C368.115,253.448 368.259,255.054 369.558,255.398C371.111,255.81 371.506,255.313 372.065,256.572C372.539,257.639 370.583,258.166 370.403,258.215C368.658,258.686 368.841,258.997 368.048,260.2C365.865,263.509 364.353,262.581 363.853,263.665C363.403,264.638 364.177,265.051 367.863,269.213C368.019,269.389 370.235,271.89 367.478,272.126C366.036,272.249 363.172,268.62 360.445,265.552Z" style="fill:rgb(8,8,8);"/>
            </g>
            <g transform="matrix(1,0,0,1,320,315)">
                <path d="M364.589,219.041C362.536,218.775 362.547,218.855 360.481,218.653C357.504,218.361 357.955,216.073 359.564,215.686C363.505,214.74 368.796,217.097 369.535,217.426C377.109,220.8 378.788,229.102 378.876,229.16C379.06,229.28 379.306,229.052 379.526,229.045C379.76,229.038 380.008,229.212 380.223,229.12C380.416,229.038 380.436,228.757 380.572,228.598C380.877,228.241 381.154,227.843 381.54,227.577C381.663,227.493 382.582,226.86 383.409,227.605C384.452,228.545 382.947,230.51 382.793,230.711C379.63,234.841 379.143,237.615 374.601,234.359C372.699,232.995 368.414,231.006 370.234,229.229C371.582,227.914 373.962,230.53 374.472,230.647C376.135,231.025 376.091,230.092 375.393,228.532C374.345,226.192 373.919,225.574 373.755,225.338C370.433,220.527 367.027,219.767 364.589,219.041Z" style="fill:rgb(6,6,6);"/>
            </g>
        </g>
    </g>
</svg>
